<svg version="1.0" xmlns="http://www.w3.org/2000/svg"
 width="3000.000000pt" height="2000.000000pt" viewBox="0 0 3000.000000 2000.000000"
 preserveAspectRatio="xMidYMid meet">

<g transform="translate(0.000000,2000.000000) scale(0.100000,-0.100000)"
fill="#000000" stroke="none">
<path d="M17492 16223 l3 -1858 550 -2 c303 -2 558 -3 568 -3 16 0 18 -8 15
-62 -3 -60 -4 -63 -27 -60 -40 6 -68 -7 -79 -35 -17 -45 -21 -120 -7 -146 6
-13 15 -88 19 -168 l6 -145 -136 -350 c-305 -781 -411 -1106 -464 -1419 -6
-38 -26 -99 -43 -135 -40 -81 -40 -128 -2 -199 40 -73 91 -116 146 -124 25 -3
86 -20 137 -37 159 -53 337 -70 418 -39 12 4 38 22 58 39 35 31 37 31 88 21
29 -6 96 -15 148 -20 52 -6 118 -17 147 -26 l52 -15 5 -53 c3 -28 10 -212 16
-407 l11 -355 -61 -280 c-159 -726 -230 -1132 -230 -1309 l0 -73 48 -46 49
-45 11 -143 c6 -79 30 -394 52 -699 43 -586 44 -597 210 -1830 44 -322 100
-738 125 -925 39 -288 162 -1097 181 -1188 5 -26 4 -28 -15 -22 -19 6 -21 2
-21 -28 0 -61 40 -270 56 -295 21 -31 10 -97 -22 -129 l-23 -23 -1433 0 c-788
0 -1441 0 -1450 0 -10 0 -18 -7 -18 -15 0 -13 165 -15 1418 -16 779 -1 1423
-1 1430 0 27 4 9 -19 -55 -71 -104 -84 -153 -114 -338 -211 -199 -103 -229
-127 -221 -175 7 -47 42 -99 89 -133 146 -106 406 -79 867 89 30 11 98 25 150
32 121 14 158 32 188 90 28 56 29 122 2 250 -11 52 -20 103 -20 113 0 16 32
17 525 17 l525 0 0 -92 c0 -51 -7 -185 -16 -296 -13 -166 -14 -215 -4 -265 22
-115 68 -175 173 -227 169 -83 311 -56 413 77 56 73 79 161 78 293 -1 127 -3
137 -94 367 -28 69 -50 129 -50 134 0 5 194 9 450 9 393 0 450 2 450 15 0 9
-9 15 -22 15 -13 0 -221 1 -463 3 l-440 2 -11 50 c-20 85 -18 103 13 107 l28
3 16 205 c9 113 15 208 12 213 -2 4 -12 6 -21 5 -12 -2 -17 4 -16 22 5 118 17
351 30 580 8 151 15 365 15 475 2 224 -13 360 -98 895 l-47 295 3 1190 3 1190
24 25 c35 37 63 109 75 191 9 65 2 169 -59 868 l-70 795 43 135 c90 281 220
726 276 941 39 151 44 263 15 323 -21 42 -79 90 -231 187 -115 74 -400 221
-525 269 -52 21 -95 45 -110 62 -14 16 -45 39 -69 52 -71 37 -64 47 26 41 156
-12 309 43 407 145 134 141 127 241 -29 424 l-65 76 67 88 c37 49 75 112 85
141 64 184 37 466 -62 664 -55 109 -93 159 -188 250 -159 152 -354 232 -597
245 -214 11 -314 -25 -353 -128 -19 -51 -21 -54 -101 -90 l-81 -38 0 1795 0
1794 -1265 0 -1265 0 2 -1857z m2488 30 l0 -1788 -48 -33 -48 -32 -1174 2
-1175 3 -3 1818 -2 1817 1225 0 1225 0 0 -1787z m-121 -1921 c-22 -58 15 -156
96 -256 l45 -56 -26 -147 c-17 -98 -37 -178 -61 -237 -52 -132 -56 -220 -13
-341 47 -133 129 -299 194 -394 54 -78 57 -86 45 -112 -10 -26 -16 -29 -59
-29 -87 0 -112 -10 -170 -69 l-55 -57 -203 -32 -203 -33 -147 139 c-81 77
-160 153 -175 169 l-28 30 -4 173 c-7 306 -18 325 -242 421 l-33 14 30 45 c17
25 42 81 56 125 25 75 29 82 66 97 51 22 65 57 78 196 15 160 9 169 -122 192
-34 5 -82 15 -105 21 l-43 12 0 78 0 79 538 2 c295 2 540 2 544 0 4 -1 3 -15
-3 -30z m564 -51 c71 -101 183 -203 377 -344 l155 -113 10 -111 c6 -61 13
-114 16 -117 3 -3 39 5 79 19 90 30 126 32 140 5 14 -26 24 -103 17 -133 -8
-29 -86 -108 -150 -150 -40 -26 -62 -54 -127 -162 -148 -245 -199 -295 -361
-350 -67 -22 -107 -29 -199 -32 -108 -5 -117 -4 -150 19 -84 57 -187 227 -276
453 -63 161 -61 222 11 395 12 30 26 78 30 105 3 28 18 108 32 180 28 146 50
187 145 267 41 35 188 146 195 148 1 0 26 -35 56 -79z m-1677 -114 l89 -22 3
-48 3 -48 -108 7 c-59 3 -126 10 -148 13 l-40 7 3 50 c3 75 5 77 61 70 26 -3
88 -16 137 -29z m211 -42 c60 -9 67 -22 59 -108 -11 -119 -25 -175 -49 -192
-55 -39 -68 -14 -88 169 -13 121 -10 150 18 142 10 -2 37 -7 60 -11z m-206
-110 l86 -7 -4 -126 c-5 -163 -11 -208 -29 -223 -17 -14 -171 -7 -202 10 -23
12 -32 81 -32 248 l0 115 48 -6 c26 -3 86 -8 133 -11z m134 -274 c-10 -52 -29
-67 -21 -16 3 22 6 46 6 53 0 7 5 10 11 6 7 -4 8 -20 4 -43z m-257 -130 c5
-14 -1 -14 -49 1 -37 11 -45 18 -34 30 8 8 79 -18 83 -31z m188 -31 c-14 -22
-28 -40 -31 -40 -3 0 -5 15 -5 34 0 28 5 36 28 44 15 5 29 8 31 6 2 -2 -8 -22
-23 -44z m-63 -81 c206 -85 260 -119 284 -178 13 -31 24 -225 23 -423 0 -14
563 -553 995 -952 83 -77 199 -184 259 -240 241 -222 325 -376 313 -577 -10
-192 -98 -284 -272 -284 -70 0 -86 4 -127 28 -150 88 -505 520 -807 980 -377
576 -551 836 -580 870 -18 20 -83 68 -145 106 -61 38 -120 78 -129 89 -26 29
-32 130 -18 324 10 146 10 171 -4 203 -22 53 -19 135 5 135 5 0 96 -36 203
-81z m-245 -61 c10 -28 10 -75 2 -209 -11 -186 -6 -291 16 -326 8 -12 34 -36
59 -53 44 -31 45 -32 45 -88 0 -31 -11 -156 -24 -277 -14 -121 -28 -251 -31
-290 -25 -264 -122 -457 -261 -521 -153 -71 -341 -14 -346 104 -4 113 10 211
57 402 65 261 116 415 275 835 145 383 183 476 190 468 3 -4 11 -24 18 -45z
m1717 -669 c32 -19 47 -21 151 -17 109 4 122 2 275 -37 l160 -42 -6 26 c-3 14
-8 35 -11 46 -11 44 27 -37 61 -130 30 -84 34 -103 25 -134 -35 -125 -173
-267 -320 -328 -94 -39 -173 -26 -285 47 -104 68 -264 248 -281 317 -13 52 30
114 105 153 27 13 43 32 61 69 13 28 25 51 26 51 2 0 19 -10 39 -21z m-1318
-205 c42 -63 75 -115 72 -117 -12 -11 -341 -119 -345 -114 -7 6 15 236 26 276
5 22 12 24 60 25 l55 1 3 44 3 43 24 -22 c14 -13 59 -74 102 -136z m1163 143
c0 -2 -21 -19 -46 -37 -55 -39 -89 -105 -79 -150 18 -81 185 -275 305 -355
153 -101 272 -100 429 3 85 55 174 150 211 225 40 81 47 131 26 181 -25 60
-19 65 24 19 21 -24 44 -43 50 -43 37 0 398 -172 537 -256 87 -53 207 -134
238 -161 69 -61 73 -143 19 -357 -36 -143 -183 -647 -249 -856 -74 -232 -70
-186 -46 -460 12 -135 26 -292 31 -350 9 -97 19 -213 69 -790 19 -223 17 -275
-14 -370 -24 -74 -56 -96 -219 -155 -181 -66 -488 -128 -771 -156 -286 -29
-707 -10 -1008 46 -297 55 -577 167 -679 272 l-32 33 12 133 c20 220 99 644
227 1227 l57 255 -6 230 c-13 479 -17 576 -37 790 -25 273 -24 267 -52 263
-15 -2 -21 -9 -20 -23 14 -130 34 -367 31 -370 -2 -2 -32 3 -68 10 -36 8 -117
21 -180 30 -63 8 -128 18 -145 21 -26 4 -32 1 -47 -26 -28 -50 -75 -63 -198
-57 -58 3 -116 9 -129 13 -21 6 -17 9 30 21 167 42 334 262 355 467 7 72 -12
152 -54 228 -20 36 -24 52 -17 64 6 9 93 44 196 79 l185 62 144 -221 c360
-552 509 -764 703 -996 194 -233 280 -314 451 -425 101 -66 170 -95 224 -95
50 0 128 46 185 110 l47 52 42 -17 c100 -40 201 -15 328 81 42 32 77 50 100
52 92 10 205 79 271 166 42 55 90 147 83 158 -14 23 -41 3 -69 -50 -61 -118
-183 -211 -299 -228 -38 -5 -63 -18 -107 -53 -124 -100 -209 -119 -318 -71
-51 22 -54 23 -63 5 -18 -31 -81 -97 -122 -127 -56 -40 -104 -38 -197 9 l-74
38 61 7 c120 13 188 59 236 156 30 60 33 77 37 174 3 95 0 119 -23 193 -29 92
-111 224 -187 304 -41 42 -42 44 -23 58 26 20 98 11 135 -16 l29 -22 9 23 c5
13 12 39 16 58 23 103 56 140 129 140 29 0 37 7 80 72 44 67 46 73 30 85 -22
16 -31 9 -69 -56 -25 -41 -35 -51 -58 -51 -74 0 -116 -42 -148 -148 -11 -37
-15 -42 -33 -36 -55 18 -106 16 -141 -6 l-35 -22 -93 84 c-156 141 -375 345
-607 564 -47 44 -107 100 -133 124 -33 31 -44 46 -35 51 7 4 92 19 188 34
l175 28 57 58 c50 53 60 59 97 59 23 0 41 -1 41 -3z m-1423 -683 c7 -85 -23
-181 -87 -277 -120 -179 -219 -224 -437 -197 -121 15 -148 31 -188 111 -25 49
-34 119 -15 119 6 0 10 -10 10 -22 0 -42 47 -105 97 -130 68 -33 212 -33 296
1 139 55 255 247 283 468 l7 58 15 -35 c8 -19 17 -63 19 -96z m414 -3225 c530
-264 1587 -290 2279 -55 69 24 133 46 144 51 18 8 19 -18 14 -1151 l-6 -1159
43 -280 c104 -677 116 -806 104 -1112 -14 -376 -45 -913 -52 -919 -1 -1 -45
-4 -97 -8 -52 -3 -171 -11 -264 -17 -92 -6 -172 -7 -176 -2 -4 4 -46 197 -94
428 -416 2001 -417 2007 -536 2425 -60 212 -152 538 -205 725 -118 419 -108
389 -115 343 l-5 -37 -138 121 c-123 107 -140 119 -153 106 -14 -13 3 -31 142
-153 l157 -139 -7 -210 c-12 -390 -7 -2154 6 -2350 24 -339 9 -1331 -21 -1357
-6 -5 -523 10 -529 16 -3 3 -103 627 -137 855 -14 91 -54 386 -90 655 -36 270
-82 607 -101 750 -128 948 -154 1158 -174 1435 -38 526 -69 954 -76 1018 -3
34 -3 62 0 62 2 0 42 -18 87 -41z m1169 -1274 c45 -159 122 -431 170 -602 62
-218 114 -428 169 -695 112 -533 330 -1575 391 -1863 41 -196 90 -525 90 -607
0 -15 9 -18 45 -18 l46 0 -3 -72 -3 -73 -519 -2 c-365 -2 -524 1 -533 8 -18
16 -17 75 2 83 24 9 45 68 71 196 31 151 31 160 -3 160 l-26 0 6 98 c30 456
33 965 8 1287 -17 219 -13 2412 4 2393 2 -2 40 -133 85 -293z m1392 -3562 c-8
-93 -16 -170 -18 -173 -3 -2 -119 -6 -259 -8 l-254 -4 -6 33 c-18 101 -31 281
-21 285 16 6 398 31 491 33 l81 1 -14 -167z m-1552 41 c36 -4 66 -7 67 -8 3
-2 -35 -187 -47 -229 -7 -24 -20 -41 -33 -46 -25 -9 -184 1 -356 24 -64 8
-121 15 -128 15 -8 0 -18 12 -23 26 -8 21 -40 205 -40 230 0 7 455 -3 560 -12z
m1490 -339 c9 -44 24 -97 33 -117 9 -21 15 -38 13 -38 -2 0 -29 13 -62 29 -32
16 -84 35 -115 41 -72 16 -147 -4 -207 -55 l-42 -37 0 126 0 125 88 4 c48 2
130 3 182 3 l94 -1 16 -80z m-1755 31 c77 -9 158 -17 180 -18 l39 -3 17 -85
c10 -47 14 -89 10 -93 -6 -6 -252 -35 -312 -37 -3 0 -18 31 -33 70 -27 67 -64
110 -98 110 -29 0 -40 17 -33 50 7 31 8 32 49 27 22 -3 104 -13 181 -21z"/>
<path d="M20100 14053 c0 -14 11 -22 43 -30 24 -7 55 -24 70 -39 16 -16 33
-24 42 -20 39 15 -47 89 -117 101 -33 6 -38 5 -38 -12z"/>
<path d="M20482 13973 c-16 -3 -22 -10 -18 -20 3 -8 6 -16 6 -18 0 -2 26 -1
58 2 47 4 65 0 104 -20 41 -21 50 -22 60 -10 13 16 9 19 -46 49 -30 17 -123
26 -164 17z"/>
<path d="M20124 13885 c-34 -52 -23 -145 18 -153 38 -7 70 94 48 148 -15 37
-43 39 -66 5z"/>
<path d="M20494 13795 c-20 -48 -18 -98 6 -126 l20 -24 25 28 c20 22 25 39 25
81 0 28 -5 57 -12 64 -23 23 -48 13 -64 -23z"/>
<path d="M20250 13734 c-6 -14 -10 -28 -10 -30 0 -3 -25 -37 -55 -76 -85 -108
-88 -149 -14 -186 56 -28 134 -35 134 -12 0 9 -15 17 -42 22 -54 9 -103 35
-103 54 0 22 18 53 62 105 38 47 68 105 68 134 0 25 -30 17 -40 -11z"/>
<path d="M20286 13279 c-32 -38 -40 -67 -33 -126 9 -82 71 -132 122 -99 41 27
58 62 58 119 0 118 -85 180 -147 106z"/>
<path d="M21355 12233 c-122 -17 -274 -74 -353 -132 -42 -31 -43 -33 -26 -52
17 -19 18 -19 43 5 34 31 110 69 193 94 58 18 98 27 226 48 23 3 32 10 32 24
0 17 -6 20 -42 19 -24 -1 -56 -4 -73 -6z"/>
<path d="M18870 12184 c0 -18 79 -326 85 -332 2 -2 12 -1 23 2 19 6 18 13 -24
174 -37 144 -45 167 -63 170 -15 2 -21 -2 -21 -14z"/>
<path d="M18976 11782 c-2 -4 5 -45 16 -90 16 -65 24 -82 39 -82 28 0 29 11 7
98 -16 65 -24 82 -39 82 -10 0 -20 -4 -23 -8z"/>
<path d="M20701 11631 c-9 -16 -3 -25 47 -62 31 -24 75 -60 98 -81 40 -37 42
-37 58 -19 16 18 15 21 -36 63 -57 47 -125 100 -145 112 -7 4 -16 -2 -22 -13z"/>
<path d="M20663 11549 c-18 -18 -16 -34 4 -50 29 -24 139 -176 169 -234 29
-55 38 -62 62 -46 22 14 -86 190 -184 299 -31 35 -41 41 -51 31z"/>
<path d="M20940 11425 c-10 -12 -3 -25 40 -72 28 -32 68 -92 88 -133 20 -41
37 -76 38 -78 5 -10 34 13 34 28 0 49 -147 270 -180 270 -4 0 -13 -7 -20 -15z"/>
<path d="M20903 11093 c4 -21 7 -52 7 -69 0 -24 5 -33 21 -37 28 -7 34 13 23
82 -8 48 -12 56 -33 59 -23 4 -24 2 -18 -35z"/>
<path d="M20750 9387 c-151 -150 -298 -294 -327 -319 -47 -41 -51 -47 -39 -64
13 -17 16 -16 62 21 27 22 177 167 334 321 251 248 283 283 271 298 -7 9 -16
16 -20 16 -3 0 -130 -123 -281 -273z"/>
<path d="M20688 9461 c-4 -13 -109 -124 -260 -277 -95 -96 -127 -135 -122
-147 3 -9 12 -17 19 -17 13 0 339 333 385 393 18 22 20 30 10 42 -14 17 -27
19 -32 6z"/>
<path d="M20175 8944 c-22 -19 -59 -47 -82 -62 -41 -26 -55 -54 -33 -67 10 -6
158 93 181 122 9 9 8 17 -1 28 -17 20 -19 19 -65 -21z"/>
<path d="M13458 15670 l2 -1790 538 -2 537 -3 3 -425 2 -425 -50 -23 c-43 -20
-50 -27 -50 -51 0 -26 -3 -29 -49 -35 -27 -4 -60 -15 -73 -25 -21 -18 -23 -27
-22 -104 1 -48 10 -110 20 -143 11 -39 18 -96 19 -169 0 -60 5 -140 9 -176 l8
-65 -87 -92 c-62 -65 -94 -92 -111 -92 -38 0 -152 -47 -249 -102 -71 -40 -327
-209 -434 -286 -16 -11 -23 0 -76 115 -280 614 -433 928 -467 960 -22 21 -160
73 -192 73 -10 0 -26 22 -41 56 -31 71 -99 166 -177 250 l-60 64 25 33 c28 37
104 186 152 297 26 61 46 89 100 140 101 96 155 173 155 220 0 47 -21 70 -62
70 -25 0 -29 3 -23 17 3 10 21 69 40 131 21 71 46 132 69 167 55 82 69 128 62
207 l-6 66 30 -11 c25 -9 33 -9 47 6 15 15 16 22 5 63 -43 159 -165 290 -340
365 l-46 20 32 19 c19 12 32 28 32 40 0 70 -275 111 -416 62 l-61 -21 -48 24
c-96 49 -211 28 -311 -55 -32 -27 -99 -83 -149 -123 -120 -99 -201 -181 -236
-242 -34 -59 -36 -103 -15 -295 8 -69 12 -137 9 -152 -5 -27 -6 -27 -34 -13
-109 57 -182 -42 -160 -215 21 -159 53 -223 137 -272 l57 -33 17 -100 c10 -55
21 -112 25 -127 6 -25 5 -27 -52 -38 -161 -32 -302 -76 -412 -128 l-74 -34
-151 47 c-83 26 -164 51 -180 56 -60 19 -106 11 -185 -32 -82 -45 -283 -180
-479 -322 -68 -49 -125 -87 -127 -86 -2 2 8 90 21 194 29 217 42 427 33 500
-5 39 -12 55 -36 74 l-30 24 39 136 c21 75 38 137 38 137 0 1 -10 5 -22 8 -20
6 -17 9 24 22 46 14 98 61 98 90 0 7 12 16 28 20 58 13 68 17 107 48 61 49 65
50 81 27 23 -32 74 -27 172 19 94 44 152 84 152 104 0 7 -18 41 -40 75 -34 53
-40 69 -40 117 0 31 -7 71 -16 90 -35 74 -311 304 -363 304 -32 0 -189 -186
-302 -356 -30 -45 -99 -170 -154 -278 l-100 -197 -32 6 c-35 6 -29 17 -111
-210 -27 -73 -32 -80 -63 -88 -19 -4 -44 -19 -55 -32 -27 -30 -102 -257 -210
-639 -47 -165 -110 -389 -141 -496 -30 -107 -66 -221 -79 -253 -29 -68 -26
-103 16 -187 66 -132 148 -210 262 -250 83 -29 234 -53 298 -47 66 6 220 55
429 137 85 33 156 58 158 56 6 -6 -400 -2471 -461 -2798 -30 -159 -31 -179
-12 -217 13 -24 13 -40 1 -121 -9 -59 -11 -100 -5 -110 34 -63 220 -193 354
-247 45 -18 81 -36 81 -40 -2 -58 -17 -421 -21 -493 -2 -52 -13 -295 -24 -540
-54 -1225 -71 -1598 -80 -1740 -18 -297 -25 -516 -24 -760 0 -216 4 -273 33
-485 l32 -240 -48 -95 c-61 -121 -65 -175 -29 -414 19 -125 23 -173 15 -183
-9 -10 -104 -13 -495 -13 -424 0 -484 -2 -484 -15 0 -13 61 -15 485 -15 267 0
485 -1 485 -2 0 -2 -11 -59 -24 -128 -30 -153 -49 -354 -40 -418 19 -133 109
-220 266 -257 152 -36 240 -8 366 114 85 83 146 174 168 249 16 53 15 177 -2
375 l-6 67 747 -2 746 -3 2 -135 c2 -113 5 -141 20 -164 22 -33 95 -68 203
-97 95 -26 283 -31 439 -11 l100 13 105 -36 c242 -84 427 -111 538 -80 146 41
298 189 262 255 -4 8 -85 67 -179 130 -94 63 -171 118 -171 123 0 4 439 7 975
7 856 0 975 2 975 15 0 13 -125 15 -1012 17 l-1013 3 -121 82 -122 82 -4 69
c-4 78 9 57 -165 262 -90 105 -113 138 -113 163 0 16 -7 150 -15 296 -79 1393
-90 1639 -161 3374 -9 229 -12 412 -8 416 5 4 42 20 82 35 174 67 233 160 199
312 -13 59 -13 69 1 96 25 50 12 156 -145 1254 l-87 610 38 290 c22 159 42
297 45 307 5 13 35 -29 114 -155 134 -214 267 -402 347 -490 69 -77 102 -91
212 -90 84 0 168 25 234 68 107 71 599 594 746 794 73 99 79 112 79 173 l0 52
122 122 121 122 -48 61 -48 60 52 60 c47 54 56 60 91 60 l39 0 0 50 c0 59 37
143 79 177 l26 21 3 184 c4 195 -11 469 -27 512 -6 15 -25 32 -46 40 l-35 15
2 398 3 398 538 5 537 5 3 1788 2 1787 -1215 0 -1215 0 3 -1790z m2382 0 l0
-1750 -1170 0 -1170 0 0 1753 0 1752 1170 -3 1170 -2 0 -1750z m-5578 -879
c40 -32 103 -90 141 -129 64 -67 67 -72 67 -119 0 -37 -5 -55 -20 -68 -19 -17
-20 -17 -20 1 -2 66 -55 141 -186 260 -69 63 -87 74 -99 64 -12 -10 4 -29 96
-118 61 -58 119 -122 129 -142 26 -51 29 -114 6 -139 -22 -24 -36 -27 -36 -8
0 12 -235 277 -259 291 -5 3 -14 0 -20 -8 -9 -10 14 -40 105 -137 63 -68 123
-139 132 -157 l16 -33 -41 -41 -41 -41 -19 41 c-18 42 -181 225 -216 244 -13
7 -22 7 -30 -1 -7 -7 20 -42 92 -116 56 -59 109 -121 118 -140 15 -31 15 -36
-1 -59 -18 -28 -55 -50 -102 -60 -23 -5 -34 -2 -48 13 -24 26 -13 56 25 71
l30 13 -27 28 c-15 16 -33 29 -40 29 -19 0 -28 -20 -16 -32 8 -8 5 -18 -8 -36
-26 -32 -25 -52 5 -95 l24 -37 -25 -29 c-17 -20 -45 -36 -95 -51 l-71 -21 -97
21 c-53 12 -100 26 -105 30 -12 12 184 388 260 497 72 103 164 221 213 271 30
31 32 32 60 17 16 -8 62 -41 103 -74z m1996 -64 l91 -47 128 2 c113 3 132 1
163 -17 41 -24 92 -117 109 -203 27 -136 3 -495 -45 -659 -33 -114 -98 -270
-178 -430 -73 -147 -108 -186 -224 -246 -82 -43 -167 -67 -238 -67 -84 0 -194
61 -310 172 -52 50 -94 94 -94 99 0 5 -16 33 -35 63 -36 57 -56 124 -75 262
-11 77 -14 82 -38 88 -66 14 -120 70 -142 146 -21 72 -32 169 -26 215 19 120
123 109 176 -19 l23 -53 44 25 c59 32 66 56 58 174 l-6 96 69 74 c38 40 72 82
76 93 4 11 -1 50 -11 89 l-17 68 24 21 c68 56 228 108 321 104 56 -2 79 -9
157 -50z m-1737 -343 c11 -19 18 -41 15 -49 -7 -19 -182 -105 -213 -105 -47 0
-27 40 65 126 94 88 95 89 133 28z m-791 -373 c89 -22 164 -42 167 -44 8 -8
-86 -320 -99 -328 -25 -16 -123 -22 -181 -11 -55 10 -197 82 -197 100 0 3 25
77 56 164 44 122 61 158 74 158 10 0 91 -18 180 -39z m3124 -127 c3 -8 -1 -28
-9 -44 -15 -29 -125 -153 -131 -147 -7 6 65 190 78 198 21 14 55 10 62 -7z
m-3479 -153 c-6 -27 -2 -31 73 -75 110 -64 191 -83 295 -68 90 13 102 20 111
64 l6 32 21 -21 c19 -19 21 -32 20 -133 -1 -119 -19 -303 -52 -515 -11 -71
-24 -182 -30 -245 -11 -128 -46 -437 -55 -487 -5 -28 -3 -33 14 -33 12 0 22 9
25 23 5 20 47 373 62 527 l6 65 147 106 c193 140 410 286 495 333 85 48 99 47
306 -19 l150 -48 -29 -36 c-84 -105 -99 -215 -80 -606 14 -294 9 -662 -25
-1835 -8 -272 -19 -659 -25 -860 -6 -201 -12 -406 -14 -457 -2 -54 1 -94 7
-96 5 -1 -10 -144 -39 -351 -57 -403 -44 -376 -177 -376 -129 0 -298 54 -563
180 -235 112 -402 233 -420 304 -3 14 6 89 20 168 24 128 302 1795 424 2543
l47 290 37 18 c20 10 108 47 195 82 146 60 181 82 154 100 -6 3 -48 -10 -93
-29 -487 -206 -836 -335 -933 -343 -74 -6 -214 19 -302 54 -77 31 -141 91
-196 184 -55 95 -62 128 -37 186 23 55 51 146 121 398 236 845 289 1005 331
1005 5 0 7 -13 3 -29z m2220 -365 l18 -34 -58 -168 c-63 -184 -77 -220 -214
-552 l-92 -224 -74 -496 c-41 -274 -92 -618 -115 -767 -22 -148 -76 -511 -120
-805 -43 -294 -81 -546 -83 -560 -9 -54 -6 217 8 660 31 994 47 1944 36 2146
-19 342 -11 467 37 560 53 104 179 171 447 240 170 43 187 43 210 0z m86 -122
c85 -90 266 -214 312 -214 12 0 65 -70 170 -223 19 -28 19 -28 -4 -85 -32 -79
-130 -222 -184 -270 -94 -82 -173 -100 -259 -58 -118 58 -180 195 -193 423
l-6 113 59 175 c32 96 61 175 65 175 3 0 21 -16 40 -36z m830 -179 c87 -101
146 -194 155 -244 10 -51 -36 -273 -220 -1056 -238 -1018 -331 -1397 -334
-1374 -2 12 3 180 12 373 32 707 76 1675 82 1826 6 153 7 157 61 323 30 92 60
172 66 178 27 23 83 58 93 59 7 0 45 -38 85 -85z m2329 -50 c9 -11 29 -207 30
-291 l0 -32 -72 -7 c-40 -3 -119 -14 -176 -24 -56 -10 -105 -15 -107 -11 -2 4
-7 36 -11 72 l-6 65 108 23 c60 13 138 26 174 29 53 5 65 9 68 25 4 18 -1 19
-74 13 -44 -4 -125 -17 -181 -30 l-101 -23 -6 35 c-3 20 -6 50 -6 68 0 32 2
33 72 54 171 52 264 63 288 34z m-379 -265 c17 -123 17 -125 -3 -142 -32 -28
-75 -23 -92 10 -19 37 -38 148 -34 197 3 45 33 67 83 63 l30 -3 16 -125z
m-2942 -173 c70 -209 235 -298 399 -217 68 35 151 118 204 204 35 58 51 71 44
34 -3 -13 -7 -88 -11 -168 -10 -269 -55 -1244 -60 -1320 -3 -41 -17 -302 -30
-580 -39 -790 -64 -1241 -70 -1250 -11 -17 -274 -44 -440 -44 -151 0 -183 3
-288 28 -114 26 -354 99 -388 117 -14 7 -11 39 27 306 23 164 56 395 72 513
54 387 241 1689 277 1935 34 232 37 244 91 375 30 74 72 176 92 226 l37 91 12
-94 c6 -52 21 -122 32 -156z m1282 173 c35 -11 74 -26 86 -35 38 -26 134 -218
404 -809 65 -143 120 -265 121 -272 2 -6 -33 -39 -76 -73 -125 -95 -224 -189
-252 -237 -21 -36 -26 -54 -21 -90 5 -45 51 -148 86 -194 16 -20 22 -22 35
-11 14 12 13 17 -12 55 -37 54 -62 109 -69 151 -7 45 20 87 105 166 136 125
517 397 711 508 78 45 220 107 226 99 1 -2 7 -25 14 -53 22 -92 88 -191 207
-315 63 -66 67 -74 65 -121 -3 -62 -244 -349 -580 -691 -168 -171 -215 -213
-265 -238 -77 -38 -158 -52 -233 -40 -54 9 -63 14 -118 73 -79 82 -193 244
-354 499 l-131 207 40 148 c117 433 139 517 134 525 -12 18 -33 6 -43 -24 -5
-18 -26 -96 -46 -173 -49 -185 -103 -384 -115 -415 -12 -32 -100 -691 -100
-748 0 -23 7 -88 16 -145 96 -638 224 -1577 224 -1650 0 -57 -34 -97 -147
-173 -233 -155 -410 -219 -586 -211 -53 2 -101 7 -104 11 -13 12 -6 215 32
1006 31 632 28 597 65 749 247 1001 590 2476 590 2536 0 9 29 5 91 -15z m2069
-249 c0 -121 -3 -151 -15 -161 -21 -17 -275 -7 -286 12 -15 24 -21 81 -8 88 6
4 76 11 155 15 135 7 144 8 144 27 0 19 -4 20 -122 14 -68 -4 -139 -9 -160
-12 -40 -6 -42 -4 -53 77 l-7 47 119 17 c65 9 123 18 128 20 6 2 31 4 58 4
l47 1 0 -149z m-374 12 c9 -55 8 -61 -26 -126 -44 -88 -45 -131 -4 -189 22
-31 37 -42 52 -41 19 2 22 -2 22 -37 l0 -40 60 0 c33 0 60 -4 60 -8 0 -4 -15
-23 -33 -40 l-34 -33 -85 103 c-46 57 -92 114 -101 128 -31 49 -51 307 -24
314 12 4 87 22 98 25 3 0 10 -25 15 -56z m44 -255 c0 -37 -4 -69 -8 -72 -10
-6 -62 72 -62 94 0 8 10 35 21 60 l21 45 14 -30 c7 -16 13 -60 14 -97z m-21
-238 l141 -175 -111 -110 -110 -110 -77 81 c-88 93 -145 183 -162 256 l-13 50
94 94 c51 51 94 92 95 91 1 -1 66 -81 143 -177z m-4664 -3180 c135 -74 342
-166 480 -212 98 -33 138 -41 222 -46 112 -5 116 -8 88 -62 -34 -66 -94 -66
-348 -1 -318 82 -447 135 -594 247 -98 75 -102 84 -91 165 l10 67 70 -53 c39
-30 112 -76 163 -105z m2999 -167 c16 -99 -7 -165 -73 -209 -127 -83 -491
-184 -668 -184 -72 0 -77 7 -71 93 l3 47 115 3 c67 2 142 11 180 21 89 23 285
122 400 200 52 36 98 66 101 66 4 0 9 -17 13 -37z m-1474 -698 c0 -14 29 -189
170 -1055 66 -410 132 -815 146 -900 53 -332 79 -486 185 -1085 60 -341 118
-669 129 -729 l20 -108 -23 -32 c-36 -51 -29 -132 28 -304 25 -79 44 -150 41
-158 -5 -12 -120 -14 -751 -14 -410 0 -745 3 -745 6 0 3 11 20 24 37 90 121
106 225 57 394 -19 69 -31 133 -31 171 0 34 38 321 85 639 47 318 112 758 145
978 45 308 100 610 240 1315 99 503 183 923 186 934 5 15 13 11 50 -30 24 -27
43 -53 44 -59z"/>
<path d="M11920 14513 c0 -14 17 -21 83 -34 45 -9 110 -28 145 -41 59 -24 63
-25 72 -8 8 16 1 22 -56 44 -64 26 -185 56 -225 56 -11 0 -19 -7 -19 -17z"/>
<path d="M12493 14410 c-49 -7 -58 -13 -50 -33 4 -11 15 -13 47 -7 52 9 115 2
154 -17 24 -12 30 -13 37 -1 13 20 11 25 -19 37 -42 17 -122 27 -169 21z"/>
<path d="M11986 14348 c-22 -31 -21 -101 2 -121 25 -23 37 -21 61 9 23 29 27
68 11 108 -12 33 -53 35 -74 4z"/>
<path d="M12309 14294 l-42 -64 17 -123 c9 -67 16 -141 16 -163 0 -51 -14 -56
-113 -47 -54 5 -71 3 -78 -8 -13 -21 14 -27 113 -28 128 -1 131 4 102 232
l-16 128 36 54 c40 60 43 70 22 78 -10 4 -29 -16 -57 -59z"/>
<path d="M12489 14221 c-46 -46 -38 -131 12 -131 44 0 82 94 55 135 -21 32
-31 31 -67 -4z"/>
<path d="M12097 13752 c-86 -57 -124 -199 -78 -291 65 -126 223 -33 238 140
12 124 -75 206 -160 151z"/>
<path d="M9869 12473 c0 -49 -4 -112 -8 -141 -6 -42 -5 -55 6 -59 28 -11 35
16 40 151 6 134 6 136 -16 136 -20 0 -21 -5 -22 -87z"/>
<path d="M24847 17423 c-4 -3 -7 -462 -7 -1019 l0 -1013 -142 -114 c-79 -63
-151 -123 -162 -135 -23 -27 -35 -160 -36 -416 0 -115 -5 -204 -12 -228 l-12
-40 -51 7 c-41 5 -56 2 -73 -12 -23 -19 -75 -130 -269 -573 -219 -500 -416
-974 -467 -1124 -35 -101 -38 -201 -9 -267 23 -52 35 -60 303 -206 91 -50 239
-131 330 -180 91 -50 302 -163 470 -253 168 -90 306 -164 307 -165 2 -1 25
-852 39 -1445 21 -926 16 -840 42 -860 20 -17 21 -23 13 -62 -29 -137 -24
-221 16 -269 l25 -29 -51 -413 c-81 -650 -131 -1108 -166 -1502 -8 -93 -23
-422 -34 -730 -11 -308 -23 -603 -26 -655 -2 -52 -7 -169 -10 -260 -3 -91 -17
-421 -30 -733 l-24 -568 -29 -37 c-61 -77 -61 -82 -32 -332 17 -151 17 -166 3
-182 -15 -17 -66 -18 -840 -18 -725 0 -823 -2 -823 -15 0 -13 97 -15 810 -15
446 0 810 -4 810 -9 0 -11 -90 -131 -155 -206 -112 -130 -160 -214 -170 -299
-11 -87 44 -164 140 -197 65 -23 309 -17 418 9 48 12 104 30 125 41 56 29 121
119 205 286 24 47 51 83 82 109 57 47 84 103 85 174 0 39 5 57 20 72 20 20 31
20 1018 18 l997 -3 6 -80 c6 -94 22 -129 83 -181 29 -26 60 -69 91 -129 106
-201 155 -258 250 -288 127 -41 390 -56 481 -29 96 28 142 84 146 174 2 47 -4
68 -34 129 -20 41 -67 110 -104 154 -96 115 -184 232 -184 244 0 8 207 11 675
11 593 0 675 2 675 15 0 13 -83 15 -690 15 l-689 0 -21 22 c-18 19 -20 35 -20
132 0 61 -5 166 -10 234 -11 137 -20 164 -99 295 l-50 83 -15 249 c-9 138 -27
475 -41 750 -13 275 -30 547 -36 605 -41 393 -107 917 -295 2323 l-85 638 22
46 c21 43 21 52 13 167 -12 166 -11 250 3 471 7 105 15 285 18 400 3 116 7
251 10 300 2 50 7 395 11 767 l7 677 291 117 c410 163 787 319 881 363 96 45
147 94 188 180 42 89 43 141 13 631 -55 873 -82 1223 -97 1252 -8 15 -121 58
-154 58 -14 0 -25 43 -25 97 0 19 18 105 39 191 49 192 81 350 81 392 0 38
-19 66 -207 307 l-144 185 -2 952 -2 951 -1801 3 c-990 1 -1804 -1 -1807 -5z
m3571 -939 c2 -714 -1 -903 -10 -911 -7 -6 -67 -28 -133 -49 -66 -21 -151 -55
-190 -74 -66 -33 -70 -37 -73 -71 -6 -68 21 -78 153 -53 21 4 9 -6 -39 -33
-38 -21 -78 -50 -89 -64 -17 -24 -17 -29 -4 -60 8 -19 24 -43 36 -53 11 -11
21 -28 21 -39 0 -32 39 -106 63 -118 14 -8 60 -9 144 -4 121 6 123 6 123 -15
0 -11 -9 -38 -20 -60 -11 -21 -29 -64 -41 -95 l-20 -55 -1730 0 -1729 0 0 106
c0 81 3 105 13 101 56 -21 198 -59 224 -60 25 -1 42 8 68 33 20 19 38 45 41
57 3 12 21 31 40 43 19 11 41 35 49 52 17 41 6 62 -68 131 l-52 48 40 -16 c22
-9 44 -20 50 -26 5 -5 22 -9 37 -9 21 0 33 8 48 33 11 17 20 36 20 41 0 20
-92 96 -217 179 -73 48 -136 87 -141 87 -5 0 -38 -22 -73 -50 -35 -27 -67 -50
-71 -50 -10 0 -11 1944 -1 1953 3 4 799 6 1767 5 l1761 -3 3 -901z m79 -1076
c199 -252 273 -355 273 -377 0 -34 -36 -204 -82 -390 -30 -123 -39 -178 -36
-218 5 -62 17 -59 -137 -38 -60 8 -115 15 -120 15 -7 0 -16 52 -22 126 -11
117 -10 131 9 192 23 78 97 242 109 242 4 0 38 -18 76 -40 56 -32 69 -36 76
-24 12 21 5 28 -74 73 l-70 40 -154 -9 c-84 -6 -160 -7 -168 -4 -17 6 -30 31
-19 37 4 3 96 26 205 52 171 40 197 49 197 66 0 10 -7 19 -15 19 -9 0 -98 -20
-198 -45 -100 -25 -190 -47 -199 -49 -13 -3 -18 2 -18 15 0 16 40 39 190 111
168 81 188 93 179 109 -12 23 -6 25 -226 -84 -161 -79 -173 -84 -187 -68 -40
44 -3 74 204 166 122 54 151 77 117 91 -8 3 -86 -11 -175 -31 -89 -20 -166
-33 -172 -30 -22 13 -8 34 38 56 52 25 280 108 299 108 6 1 51 -50 100 -111z
m-3349 1 c174 -116 214 -154 182 -174 -5 -3 -81 30 -169 75 -146 73 -161 78
-170 62 -8 -16 9 -33 117 -119 70 -56 138 -113 152 -128 23 -24 23 -28 10 -52
-8 -15 -20 -28 -25 -30 -6 -2 -85 59 -175 136 -122 102 -168 136 -177 129 -7
-6 -13 -14 -13 -18 0 -4 71 -67 158 -140 86 -72 158 -135 159 -138 2 -4 -1
-13 -5 -20 -6 -9 -57 14 -195 88 -103 56 -192 98 -197 95 -27 -17 5 -41 174
-132 141 -75 182 -101 174 -110 -17 -21 -52 -15 -200 33 l-140 46 -84 -26
c-85 -27 -90 -31 -76 -54 7 -10 25 -8 86 12 54 17 78 21 81 13 9 -29 26 -265
26 -374 0 -111 -2 -124 -28 -177 -20 -42 -31 -55 -43 -50 -8 4 -68 25 -133 48
-114 40 -118 42 -112 66 4 14 11 149 15 300 4 151 11 291 15 310 5 26 21 47
63 82 98 80 407 317 415 318 5 0 56 -32 115 -71z m1092 -723 c0 -2 -29 -18
-65 -35 -127 -63 -300 -222 -351 -323 -14 -28 -28 -75 -31 -105 -5 -42 -12
-61 -35 -84 -28 -27 -29 -33 -25 -87 13 -157 29 -267 47 -313 22 -55 20 -69
-11 -69 -55 0 -105 -101 -96 -193 8 -84 54 -127 178 -167 l80 -26 35 -80 c18
-43 52 -105 74 -137 22 -32 40 -69 40 -83 0 -22 -2 -23 -47 -18 -27 3 -52 7
-58 9 -29 8 -142 -18 -198 -46 -140 -71 -288 -185 -308 -237 -7 -19 -14 -23
-37 -18 -15 3 -83 13 -151 21 -124 16 -126 17 -405 137 -155 67 -283 123 -285
124 -2 2 33 94 77 206 232 585 346 929 340 1030 l-3 53 -84 42 c-46 23 -86 44
-89 47 -2 3 7 33 22 66 24 53 27 72 27 167 0 59 3 111 5 115 5 8 1354 12 1354
4z m2088 -91 c3 -49 6 -112 6 -140 l1 -50 -52 3 c-75 5 -90 -2 -97 -46 -6 -33
-43 -785 -62 -1230 -7 -154 -8 -164 -28 -173 -12 -5 -154 -43 -316 -84 -162
-42 -362 -94 -445 -117 l-150 -40 -15 24 c-32 50 -68 75 -145 103 -152 54
-148 52 -140 82 3 16 33 65 66 110 72 100 114 186 130 273 10 51 21 74 51 107
52 59 70 105 71 190 1 59 -2 77 -20 100 -20 27 -34 31 -78 22 -17 -4 -21 5
-34 76 -14 78 -13 80 9 119 28 48 38 151 20 214 -6 25 -28 62 -50 85 -22 25
-43 60 -50 87 -20 75 -55 124 -132 183 -78 59 -237 147 -303 167 -22 7 -44 16
-50 21 -5 5 372 8 899 7 l908 -3 6 -90z m-3788 -201 c91 -28 304 -111 383
-151 44 -22 47 -26 47 -61 0 -81 -114 -428 -282 -857 -49 -126 -102 -261 -116
-300 -22 -56 -42 -85 -105 -152 -44 -45 -101 -96 -127 -113 -32 -21 -47 -36
-43 -46 3 -8 10 -14 16 -14 25 0 111 67 181 141 l76 79 213 -91 c116 -51 246
-107 287 -124 59 -26 109 -37 233 -53 156 -21 158 -22 185 -54 61 -73 148
-166 405 -431 l270 -278 -7 -227 c-3 -125 -9 -387 -12 -583 l-7 -357 26 -17
c17 -11 36 -15 52 -11 52 13 53 24 60 406 7 437 15 660 24 660 4 0 31 -25 61
-55 61 -62 82 -67 144 -36 l38 20 -6 -92 c-3 -51 -8 -266 -12 -478 -6 -384 -6
-387 15 -408 26 -26 65 -27 89 -3 21 21 23 78 38 822 4 173 11 323 16 333 5
10 35 48 67 85 77 90 365 441 426 520 43 56 49 68 48 111 0 26 -6 58 -13 71
-16 30 -11 32 114 64 56 14 256 66 445 116 189 50 346 89 347 87 2 -2 15 -43
29 -93 29 -102 90 -233 112 -241 30 -12 35 14 9 51 -30 45 -60 122 -89 230
l-21 80 23 520 c12 287 24 541 26 566 2 25 7 109 11 188 3 78 10 145 15 148
11 6 210 -11 340 -31 126 -18 233 -43 252 -58 11 -9 19 -44 26 -122 9 -95 50
-673 66 -935 45 -735 45 -715 -5 -809 -38 -71 -82 -110 -172 -150 -148 -67
-1118 -461 -1134 -461 -5 0 1 8 12 18 13 10 61 119 127 285 98 251 104 268 86
278 -16 8 -21 5 -30 -18 -6 -15 -39 -100 -73 -188 -35 -88 -67 -170 -71 -183
-4 -13 -8 -22 -10 -20 -2 2 11 72 29 155 31 145 31 152 14 157 -11 2 -21 -1
-23 -7 -3 -7 -29 -127 -59 -267 l-54 -255 -7 -670 c-3 -368 -8 -706 -10 -750
-2 -44 -7 -188 -10 -320 -10 -431 -31 -689 -59 -744 -55 -105 -241 -185 -533
-228 -151 -22 -619 -25 -763 -5 -353 50 -783 193 -985 330 l-70 47 -11 460
c-7 253 -14 597 -18 765 -4 168 -9 373 -11 455 -3 83 -10 382 -15 665 -6 283
-14 518 -19 523 -5 5 -15 6 -21 2 -10 -6 -11 -59 -7 -224 l6 -216 -44 135
c-24 74 -59 187 -79 252 -33 105 -38 116 -57 111 -11 -3 -18 -11 -16 -17 2 -6
28 -87 56 -181 29 -93 68 -221 88 -283 19 -62 33 -115 31 -117 -1 -2 -55 25
-118 59 -63 34 -239 129 -390 210 -407 219 -803 437 -818 449 -51 41 -58 160
-17 284 73 216 675 1620 718 1671 13 16 47 11 167 -24z m2240 -485 c91 -6 181
-14 200 -18 l35 -7 17 -89 c23 -118 25 -424 3 -505 -19 -73 -58 -146 -136
-255 -127 -178 -238 -265 -339 -265 -97 1 -225 64 -358 179 -119 102 -188 215
-248 406 l-29 90 -3 -52 c-4 -62 -11 -64 -95 -33 -68 26 -107 66 -114 118 -6
43 11 107 35 135 17 19 57 23 67 6 4 -6 13 -8 21 -5 7 3 39 -10 70 -29 71 -43
88 -45 81 -7 -2 15 -10 41 -18 58 -11 28 -10 35 8 60 11 16 26 46 32 67 15 43
30 51 186 98 191 58 302 67 585 48z m382 -259 c10 -45 -7 -126 -34 -170 l-22
-35 -7 45 c-4 25 -8 75 -8 112 -1 54 2 69 17 77 28 17 46 8 54 -29z m-832
-848 c30 -17 75 -38 99 -47 46 -16 93 -53 228 -182 l82 -78 -133 -330 c-73
-181 -142 -348 -154 -370 l-20 -40 -31 65 c-58 125 -230 634 -260 771 -6 25
-13 119 -17 209 l-7 163 79 -65 c43 -36 104 -79 134 -96z m-256 117 c2 -2 6
-72 10 -155 4 -101 13 -177 27 -230 25 -99 177 -554 218 -653 17 -41 29 -76
27 -78 -1 -2 -124 150 -271 337 -237 301 -270 339 -283 326 -11 -11 -12 -19
-5 -28 80 -100 398 -507 406 -518 19 -29 -450 447 -576 584 -70 77 -127 147
-127 157 0 26 73 95 163 153 162 105 233 128 350 115 32 -4 60 -9 61 -10z
m918 -104 c106 -40 136 -68 169 -155 28 -75 27 -100 -9 -151 -72 -103 -661
-809 -675 -809 -6 0 -6 5 0 13 6 6 82 106 169 222 88 115 191 253 231 305 63
83 70 97 58 110 -9 9 -18 11 -23 5 -5 -6 -91 -119 -192 -253 -101 -133 -184
-241 -186 -239 -2 1 26 75 62 162 176 433 267 681 277 752 6 40 14 73 18 73 4
0 49 -16 101 -35z m-751 -1531 c-7 -286 -14 -527 -17 -537 -3 -10 -13 -17 -22
-15 -16 3 -17 39 -14 428 1 234 5 485 8 559 l6 133 25 -25 25 -25 -11 -518z
m379 -16 c-6 -288 -15 -527 -20 -532 -5 -5 -16 -6 -24 -3 -19 8 -20 61 -6 631
9 381 10 389 31 412 12 13 24 22 27 20 2 -3 -1 -240 -8 -528z m-1310 -2015
c233 -116 518 -203 820 -250 163 -25 643 -25 813 0 248 37 409 95 503 180 l51
46 7 -52 c3 -29 6 -80 6 -115 0 -78 -17 -98 -126 -148 -322 -149 -1045 -209
-1484 -124 -99 19 -283 71 -380 107 -118 44 -340 156 -366 184 -14 16 -19 36
-19 78 1 71 14 173 23 169 4 -2 72 -36 152 -75z m1144 -1250 c3 -10 35 -162
71 -338 61 -298 120 -576 340 -1630 48 -225 111 -529 141 -675 39 -192 82
-357 153 -595 55 -181 120 -400 146 -487 l46 -156 -26 -53 c-15 -29 -27 -67
-28 -84 -1 -21 27 -91 77 -196 43 -90 80 -172 83 -181 5 -17 -46 -18 -976 -18
-539 0 -981 3 -981 7 0 4 18 50 39 103 47 114 61 188 61 332 0 79 10 166 40
340 23 128 81 469 130 758 49 289 110 644 135 790 25 146 73 425 106 620 171
1010 242 1415 255 1463 5 14 18 17 94 17 76 0 89 -3 94 -17z m1513 -4343 c116
-19 123 -24 224 -160 51 -69 126 -165 167 -215 81 -96 135 -197 130 -241 -7
-57 -181 -112 -312 -98 -170 18 -273 57 -325 123 -16 20 -56 92 -91 160 -57
112 -72 132 -152 209 -80 78 -88 89 -88 123 0 43 -16 35 170 85 94 25 183 29
277 14z m-2687 -77 c58 -20 110 -40 115 -45 6 -6 -22 -40 -81 -96 -84 -81 -96
-97 -158 -218 -104 -205 -166 -249 -388 -275 -119 -14 -225 4 -297 49 -40 24
-46 33 -43 58 5 50 60 146 135 235 40 48 110 137 156 198 48 64 92 113 105
116 39 10 251 22 301 17 28 -2 97 -20 155 -39z m111 -176 c-12 -36 -62 -93
-89 -102 -9 -2 -40 -51 -69 -107 -67 -132 -131 -227 -171 -254 -65 -44 -291
-81 -426 -70 -87 7 -150 30 -181 66 l-20 23 20 -7 c120 -48 130 -49 245 -49
82 1 138 8 194 22 152 40 205 89 297 273 53 107 70 132 133 190 39 37 72 63
74 58 2 -6 -1 -25 -7 -43z m2338 -207 c81 -157 132 -214 222 -247 139 -52 330
-63 434 -24 99 36 104 37 68 2 -18 -16 -49 -35 -70 -41 -139 -40 -455 -4 -538
62 -37 29 -110 142 -164 254 -35 72 -52 95 -78 110 -38 20 -83 88 -83 123 0
19 10 14 70 -40 62 -56 77 -77 139 -199z"/>
<path d="M26811 13859 c-95 -32 -104 -38 -92 -58 8 -12 26 -8 108 19 54 18 99
34 101 35 7 6 -11 35 -22 34 -6 0 -49 -14 -95 -30z"/>
<path d="M26200 13826 c0 -22 5 -23 130 -35 63 -7 125 -14 138 -17 18 -3 22 0
22 19 0 22 -5 24 -114 35 -150 16 -176 15 -176 -2z"/>
<path d="M26824 13752 c-49 -33 -42 -152 9 -168 30 -10 57 28 57 80 0 67 -33
111 -66 88z"/>
<path d="M26340 13722 c-47 -39 -29 -162 25 -162 30 0 45 30 45 91 0 70 -32
102 -70 71z"/>
<path d="M26740 13500 c0 -66 -98 -116 -165 -84 -19 9 -42 13 -52 10 -15 -6
-13 -10 10 -34 24 -23 35 -27 85 -26 68 0 115 22 142 67 27 44 27 97 0 97 -16
0 -20 -7 -20 -30z"/>
<path d="M26453 13191 c-49 -23 -77 -61 -77 -107 0 -99 187 -156 310 -93 34
17 54 36 67 61 17 35 17 39 2 72 -27 57 -74 79 -174 83 -69 3 -94 0 -128 -16z"/>
<path d="M2629 16205 c-3 -2 -56 -9 -119 -15 -278 -26 -391 -58 -409 -114 -26
-81 -32 -188 -10 -202 5 -3 9 -85 9 -183 l0 -178 -206 -419 c-392 -795 -622
-1276 -654 -1367 -13 -34 -12 -41 12 -90 45 -92 351 -491 706 -922 l50 -60
-15 -110 -15 -110 83 -77 c46 -43 86 -75 89 -70 6 7 15 28 40 96 l11 29 122
-119 c67 -66 170 -167 229 -224 l107 -105 6 -130 c3 -71 17 -374 31 -673 l25
-543 -74 -187 c-83 -209 -144 -375 -183 -502 -20 -65 -27 -111 -29 -195 -2
-60 -10 -141 -18 -180 -33 -149 -88 -546 -102 -735 -4 -47 -8 -95 -10 -108 -2
-13 -7 -103 -10 -200 -19 -501 82 -1175 316 -2107 l41 -160 -9 -275 c-10 -312
-2 -581 21 -720 22 -135 119 -519 230 -910 52 -184 113 -406 136 -493 l41
-158 -23 -47 -23 -47 -753 0 c-710 0 -752 -1 -752 -17 0 -17 42 -18 739 -18
407 0 742 -3 744 -7 8 -15 -138 -312 -175 -356 -57 -68 -78 -109 -78 -150 0
-56 23 -92 77 -118 45 -23 59 -24 233 -24 141 0 205 5 269 19 99 21 166 48
174 69 9 23 27 242 35 412 l7 150 1245 3 1246 2 114 -142 c141 -178 325 -363
400 -403 90 -48 184 -35 266 37 98 86 97 233 -2 430 -19 37 -34 70 -34 73 0 3
273 5 606 5 537 0 605 2 602 15 -3 14 -76 15 -620 15 l-617 0 -48 56 c-65 76
-180 174 -286 244 -49 33 -93 60 -98 62 -6 2 -25 111 -44 243 -88 607 -196
1207 -261 1452 -81 307 -213 592 -399 863 -71 104 -72 107 -79 185 -46 531
-180 1515 -237 1739 -72 283 -203 588 -356 831 -49 78 -51 83 -62 190 -14 141
-31 479 -34 665 l-1 145 117 455 c64 250 135 529 158 620 22 91 43 169 46 173
3 5 24 -25 47 -65 23 -40 64 -110 90 -155 l48 -82 -57 -76 c-32 -42 -54 -80
-49 -84 140 -121 217 -182 223 -175 4 5 36 49 71 98 l64 89 120 -129 c316
-340 430 -431 526 -416 33 5 137 114 183 193 20 35 52 100 69 144 31 76 32 86
31 205 -2 208 -58 658 -134 1070 -27 145 -42 258 -46 346 l-6 130 36 47 c20
26 39 63 42 82 3 19 8 52 11 72 3 21 16 47 30 60 31 29 31 64 -2 189 -18 66
-26 120 -25 161 2 64 -18 123 -42 123 -7 0 -57 -11 -111 -26 -54 -14 -100 -24
-101 -22 -11 11 -44 143 -38 149 9 8 307 74 403 89 90 14 312 12 450 -4 93
-11 129 -20 185 -47 63 -30 79 -34 155 -34 70 0 94 4 135 25 108 52 191 173
237 342 20 72 23 106 23 268 0 142 -5 205 -19 270 -63 292 -181 526 -344 682
-157 150 -319 191 -463 118 -94 -49 -187 -188 -223 -338 l-18 -72 -118 -114
c-140 -135 -338 -296 -470 -382 -102 -67 -280 -166 -453 -254 -143 -73 -214
-137 -264 -237 -33 -67 -37 -84 -37 -147 2 -151 76 -241 233 -282 63 -16 65
-16 172 12 60 15 111 26 113 23 2 -2 26 -66 55 -142 l51 -138 -30 -59 c-33
-65 -37 -111 -20 -214 11 -67 79 -192 133 -244 19 -19 33 -41 31 -50 -2 -10
-11 -134 -20 -277 -9 -143 -19 -279 -23 -302 l-6 -43 -45 30 c-25 17 -51 28
-59 25 -9 -4 -73 52 -170 148 -177 174 -341 321 -416 372 -61 42 -135 59 -325
75 -74 7 -136 13 -137 13 -2 3 -43 364 -43 382 0 12 14 15 58 15 77 1 134 15
153 39 23 29 38 144 49 381 l9 205 35 69 c40 77 46 132 19 165 -10 11 -64 43
-121 71 -115 56 -116 57 -126 168 -3 40 -15 100 -27 133 l-20 61 31 34 c71 81
91 182 50 249 -26 42 -106 94 -189 122 -61 20 -65 24 -77 63 -15 50 -45 84
-99 113 -35 19 -55 22 -165 21 -107 -2 -144 -7 -260 -37 -409 -105 -731 -312
-809 -521 -58 -155 -174 -858 -217 -1316 -4 -41 -10 -82 -13 -91 -5 -12 -67
22 -301 166 -162 100 -296 189 -298 197 -2 8 8 45 22 82 l24 67 -57 25 c-166
73 -308 139 -320 148 -22 17 -251 317 -247 324 2 4 124 329 270 722 147 393
276 738 287 765 19 47 25 53 111 98 163 86 187 105 203 162 18 64 38 246 29
271 -4 10 -19 30 -35 44 -28 25 -29 26 -15 70 7 25 17 68 21 97 6 44 4 54 -14
72 -17 17 -33 21 -84 21 -35 0 -66 -2 -68 -5z m125 -46 c9 -8 -16 -155 -28
-167 -3 -2 -25 4 -50 13 -50 19 -52 25 -40 118 5 36 11 47 28 50 27 5 78 -3
90 -14z m-154 -21 c0 -13 -3 -40 -6 -60 -6 -32 -9 -36 -25 -28 -33 18 -69 12
-80 -14 -15 -32 -4 -89 21 -111 11 -10 20 -22 20 -27 0 -9 -295 -11 -363 -2
-58 8 -63 20 -41 114 14 65 19 73 48 85 33 14 183 40 306 54 121 14 120 14
120 -11z m6 -147 c122 -51 161 -70 174 -86 10 -12 10 -37 2 -118 -18 -162 -22
-171 -123 -231 -48 -28 -119 -68 -158 -89 -59 -31 -70 -41 -63 -55 6 -12 -69
-224 -265 -747 -150 -401 -278 -744 -285 -761 -11 -31 -9 -35 104 -180 63 -82
121 -158 127 -169 10 -16 2 -94 -43 -417 -31 -218 -56 -402 -56 -408 0 -29
-31 6 -291 330 -274 341 -459 594 -459 627 0 36 186 428 637 1343 l220 446 7
189 c4 104 8 190 9 191 1 0 84 -1 185 -4 l183 -5 -33 -20 c-76 -46 -148 -111
-168 -151 -30 -64 -27 -182 6 -169 10 4 14 24 14 75 l0 69 53 53 c28 29 93 76
142 105 50 29 91 55 93 56 2 2 -19 25 -47 52 -36 35 -51 57 -51 76 0 15 4 27
9 27 4 0 39 -13 77 -29z m4544 -861 c151 -40 354 -275 446 -515 178 -467 122
-958 -125 -1103 -40 -23 -57 -27 -126 -27 -117 0 -190 37 -310 159 -168 171
-287 432 -325 712 -18 133 -8 368 19 462 75 259 220 365 421 312z m-494 -593
c1 -73 9 -175 18 -227 47 -267 169 -530 320 -688 58 -61 59 -64 31 -58 -16 3
-113 9 -215 12 -162 6 -201 4 -311 -15 -100 -17 -514 -113 -591 -137 -11 -3
-38 17 -83 63 -77 79 -132 181 -144 266 -8 56 2 168 18 210 6 15 63 52 168
110 274 151 424 260 668 485 66 61 120 111 120 111 0 1 1 -59 1 -132z m-1976
-194 c139 -112 162 -153 181 -319 5 -48 14 -95 20 -106 6 -11 50 -38 97 -60
159 -74 169 -92 107 -205 l-35 -63 -10 -228 c-6 -125 -17 -254 -23 -287 -17
-85 -22 -87 -242 -82 l-180 4 -178 52 c-98 29 -180 51 -182 49 -2 -2 69 -85
156 -186 87 -101 159 -189 159 -195 0 -7 -5 -64 -11 -127 -9 -99 -17 -131 -56
-230 -118 -299 -217 -422 -358 -444 -50 -8 -104 17 -123 56 -30 65 -37 539
-16 1143 l7 180 -84 47 c-47 25 -92 55 -101 65 -46 50 -83 198 -58 228 17 21
69 19 140 -6 87 -30 148 -28 177 6 19 21 23 38 23 89 l0 64 85 72 c173 147
280 286 381 493 16 31 31 57 34 57 4 0 44 -30 90 -67z m962 -500 c-3 -92 -1
-118 17 -171 27 -80 60 -132 129 -205 30 -31 53 -58 51 -60 -16 -12 -186 -47
-225 -47 -90 1 -193 64 -226 137 -48 110 -15 239 89 341 48 47 139 109 164
111 3 1 4 -47 1 -106z m-3340 -387 c68 -29 139 -61 159 -71 l36 -17 -17 -47
c-10 -25 -91 -253 -180 -506 -90 -253 -165 -462 -167 -465 -2 -2 -28 21 -58
51 l-55 54 50 355 c27 195 59 423 70 505 22 163 28 195 35 195 2 0 60 -24 127
-54z m3818 -95 c24 -82 24 -90 5 -97 -10 -4 -13 -13 -9 -26 5 -18 4 -19 -18
-5 -34 22 -60 7 -87 -52 -14 -28 -27 -51 -31 -51 -7 0 -90 220 -90 237 0 7
165 58 202 62 4 1 16 -30 28 -68z m274 -77 c3 -9 6 -31 6 -49 0 -31 -3 -34
-47 -49 -27 -8 -66 -18 -88 -21 -22 -4 -48 -9 -58 -12 -13 -3 -21 5 -32 31 -8
19 -15 39 -15 44 0 8 58 27 180 61 48 13 47 13 54 -5z m-304 -126 c13 -48 7
-106 -18 -162 l-18 -40 49 -109 c41 -94 48 -117 46 -164 -2 -43 1 -57 14 -65
14 -7 18 -4 23 20 6 28 8 29 47 25 32 -4 54 2 90 21 54 29 59 25 20 -17 l-28
-29 2 -141 c1 -78 9 -180 18 -227 68 -368 124 -750 150 -1024 25 -260 21 -290
-50 -441 -69 -148 -157 -248 -216 -248 -38 0 -146 73 -223 152 l-59 60 6 113
c3 62 28 298 56 523 27 226 55 455 60 510 9 85 41 522 41 562 0 7 6 13 14 13
34 0 24 25 -30 78 -34 33 -77 90 -102 134 -39 71 -44 86 -49 166 l-6 87 69
122 c38 67 72 122 76 123 4 0 12 -19 18 -42z m-3309 -149 c371 -228 389 -240
443 -300 27 -30 63 -83 80 -119 29 -61 31 -73 34 -200 2 -76 -6 -260 -18 -420
-42 -570 -43 -591 -23 -613 49 -53 125 -61 206 -21 31 16 84 59 132 108 127
130 206 261 276 456 27 77 39 100 44 85 25 -76 83 -115 162 -109 111 9 216 89
290 222 48 85 141 302 157 366 l13 51 154 -3 c328 -7 500 -31 571 -80 68 -47
229 -191 410 -368 l167 -162 -92 -120 c-147 -191 -300 -391 -353 -464 -27 -37
-51 -67 -54 -67 -4 -1 -161 264 -183 309 -7 14 21 58 123 194 122 162 146 206
111 206 -5 0 -51 -56 -102 -125 -51 -68 -94 -123 -96 -121 -2 2 15 54 37 117
46 130 47 139 21 139 -15 0 -31 -37 -90 -212 -84 -247 -76 -219 -135 -463 -25
-104 -94 -377 -153 -605 -123 -479 -117 -421 -93 -922 15 -310 17 -297 -55
-329 -22 -10 -126 -34 -230 -54 -178 -35 -199 -37 -325 -31 -205 8 -404 36
-945 133 -170 30 -371 64 -445 74 -229 33 -313 74 -341 167 -11 39 -10 53 14
146 30 118 88 282 194 549 l75 188 -6 117 c-4 64 -13 263 -21 442 -8 179 -17
375 -20 435 -2 61 -7 169 -11 240 -3 72 -21 236 -40 365 -19 129 -38 256 -41
283 -5 37 -10 47 -24 47 -23 0 -24 -22 -4 -145 24 -145 17 -140 -38 30 -44
134 -56 160 -72 160 -11 0 -19 -4 -19 -10 1 -5 32 -104 69 -220 37 -115 74
-230 81 -254 l14 -44 -58 54 c-186 174 -352 337 -352 346 0 11 247 710 256
725 7 11 6 11 305 -173z m3394 51 c10 -98 27 -202 37 -231 13 -39 48 -46 123
-27 33 9 62 15 63 13 2 -2 -15 -24 -38 -49 -70 -75 -161 -89 -174 -25 -3 17
-24 72 -46 122 l-40 90 17 46 c10 25 18 72 18 104 0 56 0 57 17 35 9 -13 20
-48 23 -78z m252 -10 c12 -47 21 -101 20 -120 -2 -32 -7 -38 -59 -63 -31 -16
-74 -31 -96 -34 l-39 -5 -12 48 c-11 50 -34 235 -29 239 7 6 135 23 163 21 29
-1 31 -4 52 -86z m-456 -1177 l40 -26 -7 -71 c-4 -39 -11 -81 -15 -94 -5 -13
-106 -159 -226 -325 -119 -166 -236 -330 -261 -365 l-44 -62 -26 19 c-15 11
-52 42 -82 69 l-55 49 170 224 c94 124 235 311 315 416 80 106 146 192 148
193 1 0 21 -12 43 -27z m-15 -504 c-37 -303 -56 -476 -56 -522 l-1 -42 -52 56
c-69 73 -177 191 -200 217 -19 20 -17 24 153 262 95 132 174 239 177 237 2 -2
-8 -96 -21 -208z m-1835 -3751 c210 -387 431 -793 491 -903 74 -135 170 -339
295 -625 557 -1276 676 -1550 785 -1805 66 -154 140 -329 163 -390 49 -126 93
-220 124 -263 11 -17 21 -33 21 -36 0 -3 -552 -5 -1227 -4 l-1228 3 -7 100
c-3 55 -11 667 -17 1360 l-10 1260 89 835 c50 459 97 894 105 967 8 73 15 148
15 168 0 19 4 35 9 35 5 0 181 -316 392 -702z"/>
<path d="M6975 15012 c-88 -42 -164 -147 -200 -278 -25 -90 -31 -309 -11 -420
35 -201 113 -387 220 -519 111 -138 211 -198 331 -199 60 -1 78 3 124 29 263
145 281 700 38 1115 -63 106 -170 216 -253 256 -77 38 -187 45 -249 16z m223
-48 c268 -133 463 -621 398 -994 -26 -150 -82 -252 -170 -308 -60 -39 -149
-38 -231 2 -57 28 -205 163 -205 187 0 15 169 202 195 216 13 7 33 33 45 59
20 40 22 57 17 127 -8 125 -60 227 -133 262 -36 17 -84 17 -266 -1 l-58 -6 0
45 c0 122 54 285 119 359 71 81 189 102 289 52z m-79 -499 c46 -39 83 -127 89
-210 11 -173 -90 -218 -174 -77 -100 166 -35 387 85 287z m-166 -32 c-31 -100
7 -251 81 -328 22 -23 48 -44 56 -47 11 -4 2 -20 -35 -62 -27 -32 -57 -67 -66
-79 -22 -27 -34 -17 -73 61 -63 125 -106 277 -121 424 l-7 67 38 4 c22 2 62 4
91 5 l51 2 -15 -47z"/>
<path d="M4573 14083 c-15 -3 -23 -12 -23 -24 0 -17 4 -18 43 -12 63 12 124 8
150 -10 18 -12 27 -13 36 -4 17 17 14 25 -19 42 -28 14 -131 19 -187 8z"/>
<path d="M4690 13950 c-24 -24 -34 -62 -25 -97 9 -39 23 -53 52 -53 36 0 59
60 44 112 -15 50 -44 65 -71 38z"/>
<path d="M4842 13508 c-31 -16 -61 -67 -68 -119 -12 -95 73 -185 151 -159 67
22 105 97 90 176 -17 91 -98 138 -173 102z"/>
<path d="M4556 12317 c-67 -242 -146 -497 -191 -617 -42 -109 -44 -129 -13
-130 19 0 140 359 235 703 40 142 45 170 32 178 -7 5 -16 9 -19 9 -3 0 -23
-64 -44 -143z"/>
<path d="M4363 10343 c-65 -87 -175 -224 -245 -305 -111 -129 -125 -148 -111
-160 14 -11 22 -6 60 37 174 194 458 559 448 576 -15 24 -41 -2 -152 -148z"/>
<path d="M3812 10178 c-182 -139 -210 -164 -198 -176 9 -9 19 -11 28 -6 59 36
418 320 415 328 -2 6 -10 12 -18 13 -8 2 -110 -70 -227 -159z"/>
<path d="M3795 9710 c-38 -33 -98 -75 -133 -92 -40 -21 -61 -38 -59 -48 7 -37
107 13 231 116 54 45 64 59 55 70 -6 8 -14 14 -18 14 -3 -1 -37 -28 -76 -60z"/>
</g>
</svg>
