<svg id="svg" version="1.1" xmlns="http://www.w3.org/2000/svg" xmlns:xlink="http://www.w3.org/1999/xlink" width="400" height="400" viewBox="0, 0, 400,400"><g id="svgg"><path id="path0" d="M199.600 46.000 C 199.600 72.935,199.704 79.999,200.100 79.997 C 200.375 79.996,202.400 80.876,204.600 81.954 C 209.685 84.445,212.282 85.600,212.801 85.600 C 213.026 85.600,213.523 85.759,213.905 85.953 C 215.121 86.572,216.572 87.127,217.500 87.329 L 218.400 87.525 218.400 68.350 C 218.400 46.165,218.418 46.047,222.126 44.197 C 223.668 43.428,264.784 43.296,267.172 44.053 C 280.402 48.246,286.179 64.731,277.626 73.883 C 277.171 74.369,276.800 74.872,276.800 75.000 C 276.800 75.128,277.171 75.631,277.626 76.117 C 279.879 78.527,281.899 85.073,281.495 88.654 C 281.380 89.674,281.402 90.349,281.543 90.154 C 281.968 89.568,283.541 88.800,284.315 88.800 C 284.714 88.800,285.524 88.575,286.114 88.300 L 287.188 87.800 287.294 65.800 L 287.400 43.800 293.700 43.690 L 300.000 43.580 300.046 63.690 C 300.072 74.750,300.170 83.530,300.265 83.200 C 300.360 82.870,301.689 81.995,303.219 81.255 L 306.000 79.909 306.000 64.216 C 306.000 41.700,304.157 43.519,326.800 43.686 C 335.270 43.749,342.560 43.941,343.000 44.112 C 343.496 44.306,343.458 44.245,342.900 43.951 C 341.976 43.465,341.687 42.800,342.400 42.800 C 342.620 42.800,342.800 42.440,342.800 42.000 C 342.800 41.560,342.959 41.200,343.153 41.200 C 343.348 41.200,343.600 40.795,343.714 40.300 C 343.828 39.805,344.452 37.948,345.100 36.174 C 347.028 30.901,348.625 23.815,348.973 19.000 C 349.084 17.460,349.296 15.255,349.443 14.100 L 349.711 12.000 274.656 12.000 L 199.600 12.000 199.600 46.000 M81.331 41.400 C 81.333 42.940,81.405 43.521,81.492 42.691 C 81.579 41.861,81.577 40.601,81.489 39.891 C 81.400 39.181,81.329 39.860,81.331 41.400 M69.381 51.700 L 67.800 53.400 69.500 51.819 C 70.435 50.949,71.200 50.184,71.200 50.119 C 71.200 49.816,70.852 50.119,69.381 51.700 M359.800 53.200 C 360.659 54.080,361.452 54.800,361.562 54.800 C 361.672 54.800,361.059 54.080,360.200 53.200 C 359.341 52.320,358.548 51.600,358.438 51.600 C 358.328 51.600,358.941 52.320,359.800 53.200 M86.300 56.289 C 87.015 56.378,88.185 56.378,88.900 56.289 C 89.615 56.201,89.030 56.128,87.600 56.128 C 86.170 56.128,85.585 56.201,86.300 56.289 M231.600 62.400 L 231.600 68.400 247.700 68.399 C 267.422 68.399,268.200 68.174,268.200 62.471 C 268.200 56.732,267.062 56.400,247.404 56.400 L 231.600 56.400 231.600 62.400 M318.846 64.300 C 318.872 68.645,318.973 71.930,319.070 71.600 C 319.167 71.270,320.165 70.280,321.287 69.400 C 324.277 67.054,327.292 64.014,332.710 57.882 L 334.019 56.400 326.410 56.400 L 318.800 56.400 318.846 64.300 M96.200 60.000 C 97.059 60.880,97.852 61.600,97.962 61.600 C 98.072 61.600,97.459 60.880,96.600 60.000 C 95.741 59.120,94.948 58.400,94.838 58.400 C 94.728 58.400,95.341 59.120,96.200 60.000 M350.600 62.000 C 351.459 62.880,352.252 63.600,352.362 63.600 C 352.472 63.600,351.859 62.880,351.000 62.000 C 350.141 61.120,349.348 60.400,349.238 60.400 C 349.128 60.400,349.741 61.120,350.600 62.000 M62.534 68.800 C 62.534 70.450,62.605 71.125,62.691 70.300 C 62.778 69.475,62.778 68.125,62.691 67.300 C 62.605 66.475,62.534 67.150,62.534 68.800 M74.934 68.800 C 74.934 70.450,75.005 71.125,75.091 70.300 C 75.178 69.475,75.178 68.125,75.091 67.300 C 75.005 66.475,74.934 67.150,74.934 68.800 M103.119 68.698 C 104.944 68.772,107.824 68.772,109.519 68.697 C 111.214 68.622,109.720 68.561,106.200 68.562 C 102.680 68.562,101.294 68.624,103.119 68.698 M356.101 75.000 C 356.105 75.880,356.187 76.193,356.283 75.695 C 356.379 75.198,356.375 74.478,356.275 74.095 C 356.175 73.713,356.096 74.120,356.101 75.000 M306.175 91.200 C 306.175 97.030,306.231 99.415,306.299 96.500 C 306.367 93.585,306.367 88.815,306.299 85.900 C 306.231 82.985,306.175 85.370,306.175 91.200 M88.105 81.487 C 88.714 81.579,89.614 81.577,90.105 81.482 C 90.597 81.387,90.100 81.311,89.000 81.314 C 87.900 81.317,87.497 81.395,88.105 81.487 M231.600 85.744 C 231.600 88.023,231.533 90.678,231.452 91.644 C 231.370 92.610,231.382 92.905,231.477 92.300 C 231.657 91.160,233.331 90.711,234.220 91.565 C 234.719 92.044,238.157 92.402,244.800 92.666 C 248.224 92.802,249.907 93.002,249.400 93.212 C 248.916 93.413,250.577 93.544,253.600 93.544 C 256.742 93.544,258.303 93.416,257.800 93.200 C 257.262 92.969,258.070 92.847,260.267 92.828 C 262.383 92.810,263.587 92.961,263.686 93.257 C 263.883 93.850,266.323 92.269,267.402 90.850 C 268.529 89.367,268.512 85.685,267.372 84.129 C 265.526 81.613,265.433 81.601,247.700 81.601 L 231.600 81.600 231.600 85.744 M69.583 86.100 C 71.241 87.866,71.600 88.184,71.600 87.883 C 71.600 87.819,70.745 86.964,69.700 85.983 L 67.800 84.200 69.583 86.100 M104.783 88.500 C 106.441 90.266,106.800 90.584,106.800 90.283 C 106.800 90.219,105.945 89.364,104.900 88.383 L 103.000 86.600 104.783 88.500 M218.561 94.000 C 218.561 97.410,218.622 98.805,218.697 97.100 C 218.772 95.395,218.772 92.605,218.697 90.900 C 218.622 89.195,218.561 90.590,218.561 94.000 M287.280 97.076 C 287.236 101.958,287.335 106.037,287.500 106.139 C 287.665 106.241,287.754 103.597,287.697 100.263 C 287.509 89.215,287.362 88.089,287.280 97.076 M359.578 97.100 L 358.200 98.600 359.700 97.222 C 361.096 95.938,361.384 95.600,361.078 95.600 C 361.012 95.600,360.337 96.275,359.578 97.100 M306.800 103.058 C 306.800 103.274,307.385 103.979,308.100 104.625 L 309.400 105.800 308.200 104.402 C 307.540 103.633,306.955 102.928,306.900 102.835 C 306.845 102.743,306.800 102.843,306.800 103.058 M339.905 106.283 C 340.402 106.379,341.122 106.375,341.505 106.275 C 341.887 106.175,341.480 106.096,340.600 106.101 C 339.720 106.105,339.407 106.187,339.905 106.283 M62.493 107.600 C 62.493 108.370,62.575 108.685,62.676 108.300 C 62.776 107.915,62.776 107.285,62.676 106.900 C 62.575 106.515,62.493 106.830,62.493 107.600 M74.806 107.833 C 74.809 108.475,74.984 109.270,75.195 109.600 C 75.455 110.009,75.499 109.690,75.332 108.600 C 75.029 106.623,74.798 106.286,74.806 107.833 M111.850 110.050 C 111.517 111.717,111.840 112.040,112.200 110.400 C 112.352 109.709,112.393 109.059,112.291 108.958 C 112.189 108.856,111.991 109.347,111.850 110.050 M104.981 123.700 L 103.400 125.400 105.100 123.819 C 106.681 122.348,106.984 122.000,106.681 122.000 C 106.616 122.000,105.851 122.765,104.981 123.700 M81.334 133.600 C 81.334 135.250,81.405 135.925,81.491 135.100 C 81.578 134.275,81.578 132.925,81.491 132.100 C 81.405 131.275,81.334 131.950,81.334 133.600 M12.000 312.600 L 12.000 369.200 93.500 369.200 L 175.000 369.200 175.000 312.600 L 175.000 256.000 93.500 256.000 L 12.000 256.000 12.000 312.600 " stroke="none" fill="#5cac9c" fill-rule="evenodd"></path><path id="path1" d="M349.272 15.545 C 349.012 17.495,348.800 19.833,348.800 20.740 C 348.800 21.647,348.623 23.156,348.406 24.094 C 346.986 30.235,346.136 33.339,345.100 36.174 C 344.452 37.948,343.828 39.805,343.714 40.300 C 343.600 40.795,343.348 41.200,343.153 41.200 C 342.959 41.200,342.800 41.545,342.800 41.967 C 342.800 42.388,342.575 42.825,342.300 42.936 C 341.646 43.202,342.604 43.924,344.000 44.217 C 350.972 45.684,357.909 50.027,362.182 55.600 C 376.526 74.310,366.699 100.881,343.600 105.842 C 340.045 106.605,311.245 106.655,309.895 105.900 C 306.177 103.822,306.000 103.125,306.000 90.518 C 306.000 84.696,305.865 79.994,305.700 80.067 C 299.482 82.847,300.012 81.427,300.005 95.310 L 300.000 106.420 293.700 106.310 L 287.400 106.200 287.292 97.100 C 287.186 88.101,286.925 86.579,285.800 88.400 C 285.664 88.620,285.149 88.800,284.656 88.800 C 282.656 88.800,281.604 89.705,280.937 92.000 C 279.018 98.603,274.350 103.484,267.946 105.587 C 264.879 106.593,224.009 106.874,222.325 105.900 C 218.965 103.957,218.686 103.149,218.422 94.605 C 218.212 87.805,218.156 87.402,217.400 87.284 C 216.615 87.161,215.282 86.654,213.905 85.953 C 213.523 85.759,213.026 85.600,212.801 85.600 C 212.282 85.600,209.685 84.445,204.600 81.954 C 202.400 80.876,200.375 79.996,200.100 79.997 C 199.705 79.999,199.600 86.068,199.600 109.000 L 199.600 138.000 240.200 138.000 L 280.800 138.000 280.800 187.600 L 280.800 237.200 293.800 237.200 L 306.800 237.200 306.800 187.600 L 306.800 138.000 347.400 138.000 L 388.000 138.000 388.000 75.000 L 388.000 12.000 368.872 12.000 L 349.744 12.000 349.272 15.545 M81.345 37.500 C 81.645 44.678,81.683 44.564,78.631 45.804 C 61.736 52.671,57.387 73.510,70.201 86.200 C 73.265 89.235,77.623 92.000,79.342 92.000 C 79.678 92.000,80.049 92.156,80.167 92.347 C 80.414 92.746,82.827 93.153,87.400 93.566 C 90.556 93.850,91.029 93.965,93.400 95.019 C 102.549 99.087,101.968 113.647,92.489 117.861 C 85.106 121.144,74.800 115.158,74.800 107.589 L 74.800 106.400 68.800 106.400 L 62.800 106.400 62.800 107.874 C 62.800 116.454,73.054 129.600,79.746 129.600 C 81.465 129.600,81.672 130.576,81.373 137.257 L 81.089 143.600 87.344 143.600 L 93.600 143.600 93.600 137.080 C 93.600 130.413,93.774 129.600,95.205 129.600 C 99.535 129.600,110.725 118.756,110.792 114.495 C 110.796 114.217,110.961 113.677,111.157 113.295 C 113.265 109.192,112.140 98.552,109.153 94.338 C 108.739 93.754,108.400 93.122,108.400 92.933 C 108.400 92.744,107.324 91.396,106.008 89.939 C 101.380 84.811,96.274 82.335,88.772 81.581 C 79.698 80.669,74.826 76.182,74.806 68.719 C 74.800 66.557,74.948 65.970,76.263 62.926 C 80.864 52.272,98.601 55.069,99.907 66.654 L 100.104 68.400 106.252 68.400 C 113.274 68.400,112.777 68.755,111.842 64.400 C 109.943 55.560,104.358 48.841,96.372 45.789 L 93.600 44.730 93.600 37.965 L 93.600 31.200 87.341 31.200 L 81.082 31.200 81.345 37.500 M332.710 57.882 C 327.309 63.994,324.289 67.042,321.294 69.400 C 318.697 71.445,318.812 70.812,318.805 83.100 L 318.800 93.600 329.023 93.600 C 340.081 93.600,341.616 93.406,345.521 91.520 C 363.451 82.859,356.754 56.400,336.633 56.400 C 334.121 56.400,333.969 56.457,332.710 57.882 M231.600 92.400 L 231.600 93.600 239.900 93.595 C 249.890 93.588,252.518 93.120,244.800 92.721 C 237.826 92.361,234.693 92.019,234.220 91.565 C 233.249 90.633,231.600 91.158,231.600 92.400 M257.800 93.200 C 258.931 93.686,263.600 93.686,263.600 93.200 C 263.600 92.963,262.252 92.811,260.300 92.828 C 258.084 92.847,257.263 92.969,257.800 93.200 " stroke="none" fill="#626f8a" fill-rule="evenodd"></path><path id="path2" d="M79.400 38.293 C 73.950 38.844,64.457 42.728,58.901 46.679 C 34.911 63.738,30.553 97.105,49.385 119.526 C 52.966 123.791,58.150 128.231,61.953 130.292 C 62.749 130.724,64.030 131.431,64.800 131.864 C 68.562 133.978,78.136 137.009,80.147 136.722 C 80.916 136.612,81.012 136.312,81.118 133.687 L 81.236 130.774 79.718 130.167 C 69.438 126.056,62.832 117.709,62.648 108.600 L 62.600 106.200 68.754 106.200 L 74.909 106.200 75.465 108.400 C 78.888 121.952,96.558 121.783,99.594 108.169 C 101.160 101.146,94.884 94.030,87.085 93.986 C 77.500 93.931,67.741 87.277,64.227 78.400 C 58.737 64.530,65.386 50.272,79.900 44.794 L 81.200 44.303 81.200 41.375 C 81.200 38.184,81.160 38.115,79.400 38.293 M94.000 41.220 L 94.000 44.307 96.300 45.239 C 105.577 48.999,112.255 57.852,112.541 66.771 L 112.600 68.600 106.342 68.710 L 100.085 68.820 99.588 66.710 C 96.618 54.091,80.532 52.777,75.971 64.781 C 72.863 72.959,79.366 81.200,88.927 81.200 C 107.096 81.200,118.704 103.010,109.113 119.125 C 106.326 123.806,97.816 130.400,94.559 130.400 C 94.127 130.400,94.000 131.126,94.000 133.600 C 94.000 137.299,93.834 137.198,98.232 136.178 C 122.877 130.462,138.977 108.588,137.107 83.358 C 136.277 72.154,132.424 63.441,123.800 53.269 C 118.097 46.541,105.518 39.807,96.100 38.439 L 94.000 38.134 94.000 41.220 M221.716 44.777 C 218.704 46.635,218.800 45.645,218.800 74.735 C 218.800 104.630,218.713 103.977,222.926 105.573 C 225.274 106.463,264.476 106.130,267.620 105.194 C 280.707 101.296,285.112 86.740,276.637 75.396 C 276.395 75.072,276.688 74.393,277.519 73.355 C 284.528 64.601,281.000 50.885,270.400 45.675 L 267.400 44.200 245.200 44.092 C 223.676 43.988,222.961 44.009,221.716 44.777 M287.600 75.000 L 287.600 106.000 293.800 106.000 L 300.000 106.000 300.000 75.000 L 300.000 44.000 293.800 44.000 L 287.600 44.000 287.600 75.000 M309.296 44.798 C 306.245 46.658,306.403 45.026,306.401 74.662 C 306.400 104.638,306.255 103.272,309.642 105.176 C 311.786 106.380,340.751 106.270,345.200 105.040 C 368.212 98.679,375.992 71.468,359.914 53.583 C 356.539 49.828,350.205 46.242,344.445 44.825 C 339.384 43.580,311.329 43.558,309.296 44.798 M265.615 57.080 C 269.249 59.340,269.804 64.372,266.710 67.021 C 264.617 68.813,264.753 68.800,247.605 68.800 L 231.200 68.800 231.200 62.667 C 231.200 59.293,231.331 56.403,231.491 56.243 C 232.333 55.401,264.171 56.182,265.615 57.080 M341.870 56.561 C 350.496 58.857,356.400 66.349,356.400 75.000 C 356.400 83.622,350.468 91.150,341.870 93.439 C 340.364 93.840,336.939 93.992,329.308 93.995 L 318.815 94.000 318.551 92.946 C 318.265 91.807,318.752 56.802,319.060 56.302 C 319.413 55.731,339.615 55.960,341.870 56.561 M264.905 81.700 C 269.836 84.456,270.074 90.282,265.369 93.039 L 263.730 94.000 247.465 94.000 L 231.200 94.000 231.200 87.600 L 231.200 81.200 247.605 81.200 C 259.986 81.200,264.230 81.323,264.905 81.700 " stroke="none" fill="#fbfbfb" fill-rule="evenodd"></path><path id="path3" d="M93.680 37.886 C 93.603 44.093,93.636 44.391,94.434 44.818 C 94.893 45.064,95.357 45.177,95.464 45.069 C 95.572 44.961,95.287 44.754,94.830 44.610 C 94.084 44.373,94.000 44.032,94.000 41.240 L 94.000 38.134 96.100 38.439 C 105.518 39.807,118.097 46.541,123.800 53.269 C 129.175 59.609,131.550 63.372,133.792 69.102 C 135.131 72.524,135.674 72.720,134.414 69.328 C 129.813 56.938,118.309 45.308,106.200 40.805 C 105.760 40.641,104.950 40.328,104.400 40.109 C 102.407 39.316,98.268 38.242,95.517 37.806 L 94.033 37.570 93.897 34.485 C 93.822 32.788,93.725 34.319,93.680 37.886 M79.400 37.684 C 78.520 37.895,77.080 38.244,76.200 38.461 C 48.453 45.303,31.537 73.115,38.769 100.000 C 38.977 100.770,39.263 101.850,39.406 102.400 C 39.550 102.950,39.832 103.805,40.033 104.300 C 40.235 104.795,40.556 105.605,40.747 106.100 C 41.167 107.187,43.146 111.179,44.389 113.447 C 47.921 119.890,55.853 127.499,63.231 131.523 C 66.490 133.300,71.527 135.406,71.820 135.114 C 71.922 135.012,70.699 134.418,69.102 133.795 C 67.506 133.172,65.570 132.305,64.800 131.869 C 64.030 131.433,62.749 130.724,61.953 130.292 C 37.244 116.899,30.043 81.062,47.411 57.921 C 55.196 47.547,69.315 38.945,79.545 38.341 C 80.589 38.280,81.200 38.051,81.200 37.722 C 81.200 37.435,81.155 37.223,81.100 37.251 C 81.045 37.278,80.280 37.473,79.400 37.684 M222.662 43.900 C 222.560 44.065,232.522 44.200,244.800 44.200 C 257.078 44.200,266.916 44.068,266.662 43.906 C 266.052 43.518,222.902 43.512,222.662 43.900 M287.384 44.100 C 287.278 44.375,287.241 54.500,287.300 66.600 L 287.407 88.600 287.503 66.310 L 287.600 44.020 293.900 43.899 L 300.200 43.778 293.887 43.689 C 289.139 43.622,287.527 43.724,287.384 44.100 M309.800 44.066 C 308.701 44.672,306.800 46.472,306.800 46.906 C 306.800 47.101,307.246 46.731,307.792 46.083 C 309.555 43.987,309.778 43.964,326.878 44.086 C 335.594 44.149,342.517 44.068,342.262 43.906 C 341.483 43.411,310.712 43.562,309.800 44.066 M220.520 45.300 C 219.549 46.365,218.661 47.995,218.914 48.247 C 219.012 48.345,219.321 47.874,219.600 47.199 C 219.880 46.525,220.558 45.619,221.108 45.186 C 221.658 44.754,221.935 44.400,221.724 44.400 C 221.512 44.400,220.971 44.805,220.520 45.300 M271.800 46.369 C 275.565 48.554,280.324 54.666,280.428 57.449 C 280.444 57.862,280.626 58.560,280.832 59.000 C 281.109 59.587,281.147 59.389,280.977 58.253 C 280.266 53.492,273.434 45.177,270.254 45.204 C 270.004 45.206,270.700 45.730,271.800 46.369 M101.200 47.718 C 101.200 47.820,102.047 48.597,103.081 49.445 C 104.116 50.293,104.834 50.778,104.676 50.523 C 104.340 49.979,101.200 47.445,101.200 47.718 M306.183 48.101 C 306.077 48.376,306.038 55.891,306.096 64.801 L 306.201 81.000 306.400 64.300 C 306.510 55.115,306.549 47.600,306.487 47.600 C 306.426 47.600,306.288 47.825,306.183 48.101 M218.585 68.400 C 218.585 79.290,218.637 83.745,218.700 78.300 C 218.763 72.855,218.763 63.945,218.700 58.500 C 218.637 53.055,218.585 57.510,218.585 68.400 M69.178 51.500 L 67.800 53.000 69.300 51.622 C 70.125 50.863,70.800 50.188,70.800 50.122 C 70.800 49.816,70.462 50.104,69.178 51.500 M231.467 56.267 C 231.320 56.413,231.200 59.293,231.200 62.667 L 231.200 68.800 247.776 68.800 C 256.893 68.800,264.436 68.665,264.538 68.500 C 264.641 68.335,257.271 68.251,248.162 68.313 L 231.600 68.425 231.600 62.417 L 231.600 56.409 247.100 56.300 L 262.600 56.190 247.167 56.095 C 238.678 56.043,231.613 56.120,231.467 56.267 M324.524 56.299 C 327.562 56.367,332.422 56.367,335.324 56.299 C 338.226 56.231,335.740 56.175,329.800 56.175 C 323.860 56.175,321.486 56.231,324.524 56.299 M264.913 57.187 C 265.745 57.603,266.794 58.361,267.245 58.871 L 268.064 59.800 267.454 58.842 C 266.739 57.720,264.858 56.400,264.000 56.419 C 263.670 56.426,264.081 56.772,264.913 57.187 M78.247 60.401 C 77.451 61.282,76.800 62.128,76.800 62.281 C 76.800 62.435,76.935 62.389,77.101 62.180 C 77.267 61.971,78.022 61.125,78.780 60.300 C 79.537 59.475,80.053 58.800,79.925 58.800 C 79.797 58.800,79.042 59.521,78.247 60.401 M268.200 62.400 C 268.200 63.678,268.335 64.640,268.500 64.538 C 268.885 64.300,268.880 61.145,268.494 60.538 C 268.332 60.284,268.200 61.122,268.200 62.400 M281.324 62.600 C 281.326 63.920,281.401 64.412,281.490 63.693 C 281.579 62.974,281.577 61.894,281.486 61.293 C 281.395 60.692,281.322 61.280,281.324 62.600 M266.534 66.693 C 265.838 67.412,265.399 68.000,265.559 68.000 C 265.931 68.000,268.199 65.646,267.971 65.497 C 267.877 65.436,267.230 65.974,266.534 66.693 M280.637 66.551 C 280.233 68.694,278.736 71.952,277.463 73.458 C 276.150 75.011,276.147 74.931,277.582 76.723 C 278.840 78.294,279.779 80.275,280.653 83.200 L 281.191 85.000 280.963 83.400 C 280.694 81.509,278.797 77.370,277.626 76.117 C 276.787 75.219,276.543 74.400,277.115 74.400 C 278.088 74.400,281.521 66.756,281.105 65.519 C 281.008 65.234,280.798 65.698,280.637 66.551 M112.493 67.200 C 112.493 67.970,112.575 68.285,112.676 67.900 C 112.776 67.515,112.776 66.885,112.676 66.500 C 112.575 66.115,112.493 66.430,112.493 67.200 M367.256 66.400 C 367.256 66.730,367.411 67.360,367.600 67.800 C 367.817 68.304,367.944 68.378,367.944 68.000 C 367.944 67.670,367.789 67.040,367.600 66.600 C 367.383 66.096,367.256 66.022,367.256 66.400 M355.868 71.800 C 356.171 73.777,356.402 74.114,356.394 72.567 C 356.391 71.925,356.216 71.130,356.005 70.800 C 355.745 70.391,355.701 70.710,355.868 71.800 M62.468 72.200 C 62.462 72.640,62.611 73.360,62.800 73.800 C 63.238 74.819,63.238 73.768,62.800 72.400 C 62.543 71.596,62.477 71.557,62.468 72.200 M368.542 75.000 C 368.541 76.980,368.608 77.840,368.692 76.912 C 368.776 75.984,368.777 74.364,368.695 73.312 C 368.612 72.260,368.543 73.020,368.542 75.000 M135.234 72.800 C 135.246 73.130,135.411 73.760,135.600 74.200 L 135.944 75.000 135.966 74.200 C 135.978 73.760,135.813 73.130,135.600 72.800 C 135.255 72.267,135.215 72.267,135.234 72.800 M318.575 82.800 C 318.575 88.630,318.631 91.015,318.699 88.100 C 318.767 85.185,318.767 80.415,318.699 77.500 C 318.631 74.585,318.575 76.970,318.575 82.800 M136.046 75.800 C 136.115 77.431,136.715 78.787,136.754 77.400 C 136.773 76.740,136.613 75.930,136.400 75.600 C 136.081 75.106,136.018 75.141,136.046 75.800 M356.060 77.267 C 356.027 77.854,355.896 78.664,355.770 79.067 C 355.552 79.760,355.565 79.761,355.995 79.090 C 356.246 78.699,356.377 77.889,356.286 77.290 L 356.120 76.200 356.060 77.267 M137.086 83.000 C 137.210 85.200,137.376 87.075,137.456 87.167 C 137.764 87.523,137.524 80.555,137.202 79.800 C 137.002 79.330,136.954 80.650,137.086 83.000 M84.200 80.800 C 84.640 80.989,85.270 81.144,85.600 81.144 C 85.978 81.144,85.904 81.017,85.400 80.800 C 84.960 80.611,84.330 80.456,84.000 80.456 C 83.622 80.456,83.696 80.583,84.200 80.800 M231.286 86.300 L 231.373 91.400 231.499 86.487 L 231.625 81.575 248.174 81.687 C 257.277 81.749,264.641 81.665,264.538 81.500 C 264.436 81.335,256.893 81.200,247.776 81.200 L 231.200 81.200 231.286 86.300 M266.534 83.307 C 267.230 84.026,267.877 84.564,267.971 84.503 C 268.199 84.354,265.931 82.000,265.559 82.000 C 265.399 82.000,265.838 82.588,266.534 83.307 M100.000 84.524 C 100.000 84.617,100.765 85.198,101.700 85.815 C 102.635 86.432,103.189 86.680,102.931 86.368 C 102.434 85.767,100.000 84.236,100.000 84.524 M268.200 87.600 C 268.200 88.878,268.332 89.716,268.494 89.462 C 268.880 88.855,268.885 85.700,268.500 85.462 C 268.335 85.360,268.200 86.322,268.200 87.600 M281.324 87.400 C 281.326 88.720,281.401 89.212,281.490 88.493 C 281.579 87.774,281.577 86.694,281.486 86.093 C 281.395 85.492,281.322 86.080,281.324 87.400 M104.000 87.325 C 104.000 87.394,104.585 87.979,105.300 88.625 L 106.600 89.800 105.425 88.500 C 104.330 87.288,104.000 87.016,104.000 87.325 M137.278 89.800 C 137.231 90.900,137.100 92.790,136.986 94.000 C 136.819 95.779,136.861 96.014,137.205 95.225 C 137.439 94.688,137.570 92.798,137.496 91.025 C 137.413 89.020,137.331 88.556,137.278 89.800 M266.957 91.300 C 266.525 91.795,265.727 92.523,265.185 92.917 C 264.236 93.608,264.249 93.609,265.517 92.921 C 266.242 92.528,267.101 91.801,267.426 91.304 C 268.184 90.148,267.966 90.146,266.957 91.300 M85.100 93.889 C 85.815 93.978,86.985 93.978,87.700 93.889 C 88.415 93.801,87.830 93.728,86.400 93.728 C 84.970 93.728,84.385 93.801,85.100 93.889 M239.300 93.900 C 243.865 93.964,251.335 93.964,255.900 93.900 C 260.465 93.835,256.730 93.783,247.600 93.783 C 238.470 93.783,234.735 93.835,239.300 93.900 M324.100 93.899 C 327.125 93.967,332.075 93.967,335.100 93.899 C 338.125 93.831,335.650 93.775,329.600 93.775 C 323.550 93.775,321.075 93.831,324.100 93.899 M136.222 98.000 C 135.184 103.758,131.532 111.822,127.577 117.090 C 120.385 126.669,110.984 132.917,99.187 135.961 C 97.544 136.385,96.596 136.747,97.080 136.766 C 104.712 137.063,120.256 127.459,127.468 117.989 C 132.275 111.678,137.393 100.028,136.712 96.948 C 136.617 96.520,136.408 96.970,136.222 98.000 M273.000 102.650 C 272.281 103.262,272.134 103.505,272.633 103.257 C 273.366 102.893,274.741 101.576,274.349 101.614 C 274.267 101.622,273.660 102.088,273.000 102.650 M99.444 103.800 C 99.773 105.271,100.002 105.590,99.994 104.567 C 99.991 104.145,99.805 103.530,99.582 103.200 C 99.285 102.762,99.248 102.924,99.444 103.800 M112.531 106.200 C 112.533 107.740,112.605 108.321,112.692 107.491 C 112.779 106.661,112.777 105.401,112.689 104.691 C 112.600 103.981,112.529 104.660,112.531 106.200 M64.600 106.269 C 69.391 106.558,75.111 106.576,74.939 106.300 C 74.837 106.135,72.018 106.033,68.676 106.074 C 65.334 106.115,63.500 106.202,64.600 106.269 M233.900 106.300 C 239.455 106.362,248.545 106.362,254.100 106.300 C 259.655 106.237,255.110 106.186,244.000 106.186 C 232.890 106.186,228.345 106.237,233.900 106.300 M290.918 106.298 C 292.633 106.373,295.333 106.372,296.918 106.297 C 298.503 106.221,297.100 106.159,293.800 106.160 C 290.500 106.161,289.203 106.222,290.918 106.298 M318.274 106.299 C 322.055 106.365,328.355 106.365,332.274 106.299 C 336.193 106.234,333.100 106.180,325.400 106.180 C 317.700 106.180,314.493 106.234,318.274 106.299 M99.450 108.450 C 99.117 110.117,99.440 110.440,99.800 108.800 C 99.952 108.109,99.993 107.459,99.891 107.358 C 99.789 107.256,99.591 107.747,99.450 108.450 M62.406 109.633 C 62.409 110.165,62.589 110.870,62.806 111.200 C 63.082 111.622,63.123 111.385,62.942 110.400 C 62.625 108.675,62.398 108.349,62.406 109.633 M95.978 115.100 L 94.600 116.600 96.100 115.222 C 97.496 113.938,97.784 113.600,97.478 113.600 C 97.412 113.600,96.737 114.275,95.978 115.100 M110.715 115.010 C 110.592 115.445,110.369 116.160,110.220 116.600 C 110.071 117.040,110.242 116.894,110.600 116.276 C 110.958 115.658,111.181 114.942,111.095 114.686 C 111.010 114.430,110.839 114.576,110.715 115.010 M86.307 118.690 C 87.026 118.779,88.106 118.777,88.707 118.686 C 89.308 118.595,88.720 118.522,87.400 118.524 C 86.080 118.526,85.588 118.601,86.307 118.690 M104.975 124.100 L 103.800 125.400 105.100 124.225 C 106.312 123.130,106.584 122.800,106.275 122.800 C 106.206 122.800,105.621 123.385,104.975 124.100 M101.814 126.446 C 99.713 128.026,99.516 128.287,101.127 127.362 C 102.262 126.710,104.047 125.145,103.562 125.227 C 103.473 125.242,102.686 125.791,101.814 126.446 M93.760 137.000 C 93.759 140.520,93.821 142.107,93.896 140.528 C 94.026 137.823,94.097 137.632,95.117 137.259 L 96.200 136.863 95.117 136.832 C 94.047 136.800,94.032 136.761,93.897 133.700 C 93.822 131.995,93.761 133.480,93.760 137.000 M72.800 135.600 C 73.130 135.813,73.760 135.978,74.200 135.966 L 75.000 135.944 74.200 135.600 C 73.004 135.086,72.005 135.086,72.800 135.600 M75.600 136.400 C 75.930 136.613,76.740 136.773,77.400 136.754 C 78.576 136.721,78.580 136.714,77.600 136.400 C 76.070 135.910,74.842 135.910,75.600 136.400 M80.000 136.797 L 79.000 137.045 79.983 137.307 C 81.030 137.586,81.371 137.466,81.142 136.899 C 81.064 136.706,80.550 136.660,80.000 136.797 M84.518 143.898 C 86.233 143.973,88.933 143.972,90.518 143.897 C 92.103 143.821,90.700 143.759,87.400 143.760 C 84.100 143.761,82.803 143.822,84.518 143.898 M24.800 200.000 L 24.800 206.800 100.000 206.800 L 175.200 206.800 175.200 200.000 L 175.200 193.200 100.000 193.200 L 24.800 193.200 24.800 200.000 M24.800 237.400 L 24.800 244.000 100.000 244.000 L 175.200 244.000 175.200 237.400 L 175.200 230.800 100.000 230.800 L 24.800 230.800 24.800 237.400 M253.600 237.600 C 253.600 237.820,252.700 238.000,251.600 238.000 C 250.500 238.000,249.600 238.180,249.600 238.400 C 249.600 238.620,248.970 238.800,248.200 238.800 C 247.430 238.800,246.800 238.980,246.800 239.200 C 246.800 239.420,246.350 239.600,245.800 239.600 C 245.250 239.600,244.800 239.780,244.800 240.000 C 244.800 240.220,244.350 240.400,243.800 240.400 C 243.250 240.400,242.800 240.580,242.800 240.800 C 242.800 241.020,242.440 241.200,242.000 241.200 C 241.560 241.200,241.200 241.380,241.200 241.600 C 241.200 241.820,240.929 242.000,240.598 242.000 C 239.797 242.000,234.642 244.515,234.000 245.219 C 233.890 245.340,233.172 245.878,232.404 246.415 C 229.815 248.226,224.000 253.774,224.000 254.434 C 224.000 254.635,223.280 255.541,222.400 256.448 C 221.520 257.355,220.800 258.262,220.800 258.465 C 220.800 258.668,220.440 259.220,220.000 259.692 C 219.560 260.164,218.976 261.056,218.703 261.675 C 218.429 262.294,218.069 262.800,217.902 262.800 C 217.736 262.800,217.600 263.034,217.600 263.320 C 217.600 264.056,216.659 265.993,216.300 265.997 C 216.135 265.999,216.000 266.324,216.000 266.720 C 216.000 268.390,215.874 268.400,195.163 268.400 C 177.406 268.400,175.260 268.468,175.043 269.033 C 174.725 269.860,174.725 355.340,175.043 356.167 C 175.260 356.732,177.393 356.800,195.010 356.800 C 215.634 356.800,216.000 356.822,216.000 358.043 C 216.000 358.459,216.180 358.800,216.400 358.800 C 216.620 358.800,216.800 359.160,216.800 359.600 C 216.800 360.040,216.980 360.400,217.200 360.400 C 217.420 360.400,217.600 360.760,217.600 361.200 C 217.600 361.640,217.780 362.000,218.000 362.000 C 218.220 362.000,218.400 362.320,218.400 362.712 C 218.400 363.103,218.760 363.683,219.200 364.000 C 219.640 364.317,220.000 364.857,220.000 365.200 C 220.000 365.543,220.360 366.083,220.800 366.400 C 221.240 366.717,221.600 367.204,221.600 367.482 C 221.600 367.759,222.275 368.735,223.100 369.650 C 226.561 373.488,229.022 375.989,229.340 375.995 C 229.526 375.998,230.183 376.540,230.800 377.200 C 231.417 377.860,232.169 378.400,232.472 378.400 C 232.775 378.400,233.283 378.760,233.600 379.200 C 233.917 379.640,234.457 380.000,234.800 380.000 C 235.143 380.000,235.683 380.360,236.000 380.800 C 236.317 381.240,236.897 381.600,237.288 381.600 C 237.680 381.600,238.000 381.780,238.000 382.000 C 238.000 382.220,238.360 382.400,238.800 382.400 C 239.240 382.400,239.600 382.580,239.600 382.800 C 239.600 383.020,239.960 383.200,240.400 383.200 C 240.840 383.200,241.200 383.380,241.200 383.600 C 241.200 383.820,241.472 384.000,241.805 384.000 C 242.138 384.000,242.723 384.159,243.105 384.353 C 243.487 384.548,244.340 384.929,245.000 385.200 C 245.660 385.471,246.513 385.852,246.895 386.047 C 247.277 386.241,248.132 386.400,248.795 386.400 C 249.458 386.400,250.000 386.580,250.000 386.800 C 250.000 387.020,250.799 387.200,251.776 387.200 C 252.753 387.200,253.664 387.380,253.800 387.600 C 253.962 387.863,269.737 388.000,299.824 388.000 C 330.075 388.000,345.600 387.864,345.600 387.600 C 345.600 387.380,345.955 387.200,346.388 387.200 C 349.181 387.200,356.000 380.398,356.000 377.611 C 356.000 377.191,356.180 376.736,356.400 376.600 C 356.899 376.291,356.935 367.851,356.441 366.895 C 356.244 366.513,355.769 365.440,355.385 364.511 C 354.399 362.120,349.958 357.600,348.595 357.600 C 348.268 357.600,348.000 357.420,348.000 357.200 C 348.000 356.956,349.859 356.800,352.776 356.800 C 355.529 356.800,357.658 356.631,357.800 356.400 C 357.936 356.180,358.391 356.000,358.811 356.000 C 360.142 356.000,363.450 353.847,365.165 351.866 C 367.147 349.577,367.599 348.952,367.600 348.500 C 367.600 348.225,367.780 348.000,368.000 348.000 C 368.220 348.000,368.400 347.460,368.400 346.800 C 368.400 346.140,368.580 345.600,368.800 345.600 C 369.310 345.600,369.340 336.255,368.834 335.295 C 368.632 334.913,368.192 333.964,367.856 333.187 C 367.293 331.885,366.959 331.406,365.165 329.334 C 363.636 327.567,361.576 326.172,359.623 325.579 C 359.022 325.397,361.027 325.255,364.489 325.234 C 371.725 325.192,374.481 324.229,377.565 320.666 C 379.547 318.377,379.999 317.752,380.000 317.300 C 380.000 317.025,380.180 316.800,380.400 316.800 C 380.620 316.800,380.800 316.260,380.800 315.600 C 380.800 314.940,380.980 314.400,381.200 314.400 C 381.445 314.400,381.600 312.475,381.600 309.424 C 381.600 306.537,381.432 304.343,381.200 304.200 C 380.980 304.064,380.800 303.513,380.800 302.976 C 380.800 302.439,380.620 302.000,380.400 302.000 C 380.180 302.000,380.000 301.680,380.000 301.288 C 380.000 300.897,379.640 300.317,379.200 300.000 C 378.760 299.683,378.400 299.233,378.400 299.000 C 378.400 298.767,378.020 298.312,377.556 297.988 C 377.091 297.665,376.171 296.904,375.511 296.297 C 374.321 295.205,371.900 293.948,369.900 293.385 C 369.735 293.338,367.530 293.278,365.000 293.250 C 362.233 293.220,360.400 293.041,360.400 292.800 C 360.400 292.580,360.760 292.400,361.200 292.400 C 361.640 292.400,362.000 292.262,362.000 292.094 C 362.000 291.926,362.720 291.344,363.600 290.800 C 364.480 290.256,365.200 289.708,365.200 289.581 C 365.200 289.454,365.557 288.968,365.994 288.499 C 367.137 287.271,368.400 284.904,368.400 283.988 C 368.400 283.555,368.580 283.200,368.800 283.200 C 369.045 283.200,369.200 281.275,369.200 278.224 C 369.200 275.337,369.032 273.143,368.800 273.000 C 368.580 272.864,368.400 272.313,368.400 271.776 C 368.400 271.239,368.220 270.800,368.000 270.800 C 367.780 270.800,367.597 270.575,367.593 270.300 C 367.585 269.750,365.856 267.452,364.600 266.321 C 362.549 264.476,361.359 263.601,360.900 263.600 C 360.625 263.600,360.400 263.420,360.400 263.200 C 360.400 262.980,359.871 262.800,359.224 262.800 C 358.577 262.800,357.936 262.620,357.800 262.400 C 357.646 262.151,353.863 262.000,347.776 262.000 L 338.000 262.000 338.000 259.224 C 338.000 257.697,337.820 256.336,337.600 256.200 C 337.380 256.064,337.200 255.423,337.200 254.776 C 337.200 254.129,337.020 253.600,336.800 253.600 C 336.580 253.600,336.400 253.257,336.400 252.838 C 336.400 251.931,334.792 248.800,334.326 248.800 C 334.147 248.800,334.000 248.568,334.000 248.285 C 334.000 247.363,327.652 241.200,326.703 241.200 C 326.413 241.200,325.917 240.840,325.600 240.400 C 325.283 239.960,324.703 239.600,324.312 239.600 C 323.920 239.600,323.600 239.420,323.600 239.200 C 323.600 238.980,323.150 238.800,322.600 238.800 C 322.050 238.800,321.600 238.620,321.600 238.400 C 321.600 238.180,320.970 238.000,320.200 238.000 C 319.430 238.000,318.800 237.820,318.800 237.600 C 318.800 237.337,307.667 237.200,286.200 237.200 C 264.733 237.200,253.600 237.337,253.600 237.600 " stroke="none" fill="#eab893" fill-rule="evenodd"></path><path id="path4" d="M76.400 12.413 C 76.400 12.626,75.309 12.800,73.976 12.800 C 72.463 12.800,71.646 12.950,71.800 13.200 C 71.951 13.444,71.337 13.600,70.224 13.600 C 69.221 13.600,68.400 13.780,68.400 14.000 C 68.400 14.220,67.858 14.400,67.195 14.400 C 66.532 14.400,65.632 14.580,65.195 14.800 C 64.758 15.020,64.042 15.380,63.605 15.600 C 63.168 15.820,62.493 16.010,62.105 16.023 C 61.717 16.036,60.503 16.470,59.406 16.989 C 58.310 17.507,57.275 17.846,57.106 17.742 C 56.938 17.638,56.800 17.743,56.800 17.976 C 56.800 18.209,56.440 18.400,56.000 18.400 C 55.560 18.400,55.200 18.580,55.200 18.800 C 55.200 19.020,54.855 19.200,54.433 19.200 C 54.012 19.200,53.607 19.336,53.533 19.502 C 53.460 19.668,52.185 20.415,50.700 21.162 C 49.215 21.909,48.000 22.673,48.000 22.860 C 48.000 23.047,47.680 23.200,47.288 23.200 C 46.897 23.200,46.317 23.560,46.000 24.000 C 45.683 24.440,45.143 24.800,44.801 24.800 C 44.458 24.800,43.880 25.115,43.517 25.500 C 42.520 26.556,41.600 27.263,41.600 26.973 C 41.600 26.832,41.103 27.229,40.496 27.858 C 39.889 28.486,39.166 29.046,38.890 29.102 C 38.234 29.235,29.235 38.234,29.102 38.890 C 29.046 39.166,28.486 39.889,27.858 40.496 C 27.229 41.103,26.869 41.605,27.058 41.612 C 27.246 41.619,27.085 41.808,26.700 42.032 C 26.315 42.256,26.000 42.682,26.000 42.977 C 26.000 43.273,25.730 43.618,25.400 43.745 C 25.070 43.871,24.800 44.301,24.800 44.699 C 24.800 45.097,24.440 45.683,24.000 46.000 C 23.560 46.317,23.200 46.897,23.200 47.288 C 23.200 47.680,23.048 48.000,22.863 48.000 C 22.677 48.000,22.092 48.855,21.563 49.900 C 21.033 50.945,20.465 51.860,20.300 51.933 C 20.135 52.007,20.000 52.412,20.000 52.833 C 20.000 53.255,19.820 53.600,19.600 53.600 C 19.380 53.600,19.200 53.960,19.200 54.400 C 19.200 54.840,19.020 55.200,18.800 55.200 C 18.580 55.200,18.400 55.560,18.400 56.000 C 18.400 56.440,18.209 56.800,17.976 56.800 C 17.743 56.800,17.644 56.948,17.756 57.129 C 17.868 57.309,17.718 57.922,17.423 58.490 C 17.129 59.058,16.675 60.215,16.416 61.061 C 15.926 62.661,15.358 64.105,14.753 65.295 C 14.559 65.677,14.400 66.532,14.400 67.195 C 14.400 67.858,14.220 68.400,14.000 68.400 C 13.780 68.400,13.600 69.221,13.600 70.224 C 13.600 71.337,13.444 71.951,13.200 71.800 C 12.950 71.646,12.800 72.463,12.800 73.976 C 12.800 75.309,12.631 76.400,12.424 76.400 C 11.916 76.400,11.851 98.280,12.357 98.463 C 12.566 98.538,12.780 99.590,12.832 100.800 C 12.885 102.010,13.057 103.180,13.214 103.400 C 13.508 103.812,13.882 105.482,14.264 108.098 C 14.385 108.922,14.645 109.496,14.842 109.374 C 15.039 109.252,15.200 109.778,15.200 110.543 C 15.200 111.308,15.378 111.993,15.597 112.067 C 15.815 112.140,16.033 112.682,16.081 113.271 C 16.130 113.860,16.312 114.255,16.485 114.148 C 16.658 114.040,16.800 114.413,16.800 114.976 C 16.800 115.539,16.980 116.000,17.200 116.000 C 17.420 116.000,17.600 116.439,17.600 116.976 C 17.600 117.513,17.780 118.064,18.000 118.200 C 18.220 118.336,18.400 118.807,18.400 119.247 C 18.400 119.687,18.580 119.936,18.800 119.800 C 19.027 119.660,19.200 119.996,19.200 120.576 C 19.200 121.139,19.346 121.600,19.525 121.600 C 19.704 121.600,20.098 122.230,20.400 123.000 C 20.702 123.770,21.096 124.400,21.275 124.400 C 21.454 124.400,21.600 124.720,21.600 125.112 C 21.600 125.503,21.960 126.083,22.400 126.400 C 22.840 126.717,23.200 127.257,23.200 127.600 C 23.200 127.943,23.560 128.483,24.000 128.800 C 24.440 129.117,24.800 129.605,24.800 129.885 C 24.800 130.164,25.385 131.180,26.100 132.142 C 26.815 133.105,27.760 134.407,28.200 135.036 C 28.640 135.666,29.405 136.566,29.900 137.036 C 30.395 137.507,30.800 138.019,30.800 138.174 C 30.800 138.656,31.891 139.576,32.152 139.314 C 32.289 139.178,32.400 139.397,32.400 139.800 C 32.400 140.203,32.496 140.437,32.614 140.319 C 32.732 140.201,34.280 141.521,36.054 143.252 C 37.827 144.984,39.459 146.400,39.679 146.400 C 39.899 146.400,40.583 146.940,41.200 147.600 C 41.817 148.260,42.519 148.800,42.760 148.800 C 43.002 148.800,43.200 148.950,43.200 149.132 C 43.200 149.315,43.695 149.715,44.300 150.022 C 45.480 150.619,50.069 153.589,50.400 153.970 C 50.510 154.096,50.870 154.258,51.200 154.330 C 51.530 154.401,51.860 154.628,51.934 154.832 C 52.008 155.037,52.218 155.112,52.402 154.999 C 52.585 154.885,53.020 155.077,53.368 155.425 C 53.715 155.773,54.000 155.934,54.000 155.783 C 54.000 155.632,54.444 155.799,54.986 156.154 C 55.528 156.509,56.338 156.800,56.786 156.800 C 57.234 156.800,57.600 156.980,57.600 157.200 C 57.600 157.420,57.915 157.601,58.300 157.602 C 58.685 157.604,59.516 157.874,60.146 158.202 C 60.776 158.531,61.731 158.800,62.269 158.800 C 62.807 158.800,63.160 158.942,63.052 159.115 C 62.945 159.288,63.332 159.470,63.911 159.517 C 64.491 159.565,65.144 159.784,65.362 160.002 C 65.581 160.221,66.354 160.400,67.080 160.400 C 67.806 160.400,68.400 160.580,68.400 160.800 C 68.400 161.020,69.120 161.200,70.000 161.200 C 70.880 161.200,71.600 161.380,71.600 161.600 C 71.600 161.822,72.659 162.000,73.976 162.000 C 75.283 162.000,76.467 162.185,76.607 162.411 C 76.771 162.677,80.720 162.810,87.839 162.787 C 93.878 162.768,98.723 162.599,98.607 162.412 C 98.492 162.225,99.433 161.974,100.698 161.856 C 104.402 161.509,106.389 161.141,106.626 160.758 C 106.748 160.561,107.467 160.400,108.224 160.400 C 108.981 160.400,109.600 160.220,109.600 160.000 C 109.600 159.780,110.039 159.600,110.576 159.600 C 111.113 159.600,111.664 159.420,111.800 159.200 C 111.936 158.980,112.459 158.800,112.962 158.800 C 113.465 158.800,114.435 158.521,115.118 158.181 C 115.800 157.841,116.746 157.487,117.220 157.396 C 117.694 157.305,118.305 157.045,118.578 156.819 C 118.850 156.592,119.192 156.525,119.337 156.670 C 119.482 156.815,119.600 156.723,119.600 156.467 C 119.600 156.210,119.960 156.000,120.400 156.000 C 120.840 156.000,121.200 155.820,121.200 155.600 C 121.200 155.380,121.538 155.200,121.951 155.200 C 122.364 155.200,122.924 154.932,123.196 154.604 C 123.468 154.277,123.817 154.087,123.972 154.183 C 124.127 154.279,124.500 154.016,124.800 153.600 C 125.100 153.184,125.478 152.925,125.641 153.025 C 125.803 153.125,126.175 152.981,126.468 152.704 C 126.760 152.427,127.495 151.945,128.100 151.632 C 128.705 151.320,129.200 150.915,129.200 150.732 C 129.200 150.550,129.425 150.400,129.700 150.400 C 129.975 150.399,130.718 149.953,131.352 149.408 C 131.986 148.863,132.689 148.531,132.914 148.670 C 133.149 148.816,133.202 148.727,133.038 148.462 C 132.881 148.208,132.961 148.000,133.216 148.000 C 133.471 148.000,134.183 147.460,134.800 146.800 C 135.417 146.140,136.132 145.600,136.389 145.600 C 136.647 145.600,137.127 145.330,137.457 145.000 C 137.787 144.670,137.940 144.400,137.798 144.400 C 137.655 144.400,138.137 143.912,138.869 143.315 C 140.577 141.923,143.994 138.298,143.998 137.876 C 143.999 137.698,144.180 137.664,144.400 137.800 C 144.620 137.936,144.800 137.756,144.800 137.400 C 144.800 137.044,144.980 136.864,145.200 137.000 C 145.420 137.136,145.600 136.949,145.600 136.584 C 145.600 136.219,146.140 135.417,146.800 134.800 C 147.460 134.183,148.000 133.471,148.000 133.216 C 148.000 132.961,148.208 132.881,148.462 133.038 C 148.727 133.202,148.816 133.149,148.670 132.914 C 148.531 132.689,148.863 131.986,149.408 131.352 C 149.953 130.718,150.399 129.975,150.400 129.700 C 150.400 129.425,150.550 129.200,150.732 129.200 C 150.915 129.200,151.320 128.705,151.632 128.100 C 151.945 127.495,152.427 126.760,152.704 126.468 C 152.981 126.175,153.125 125.803,153.025 125.641 C 152.925 125.478,153.184 125.100,153.600 124.800 C 154.016 124.500,154.279 124.127,154.183 123.972 C 154.087 123.817,154.277 123.468,154.604 123.196 C 154.932 122.924,155.200 122.364,155.200 121.951 C 155.200 121.538,155.380 121.200,155.600 121.200 C 155.820 121.200,156.000 120.840,156.000 120.400 C 156.000 119.960,156.180 119.600,156.400 119.600 C 156.620 119.600,156.762 119.465,156.715 119.300 C 156.668 119.135,156.879 118.550,157.183 118.000 C 157.487 117.450,157.709 116.956,157.677 116.902 C 157.487 116.580,158.161 114.400,158.450 114.400 C 158.643 114.400,158.800 113.860,158.800 113.200 C 158.800 112.540,158.980 112.000,159.200 112.000 C 159.420 112.000,159.600 111.460,159.600 110.800 C 159.600 110.140,159.780 109.600,160.000 109.600 C 160.220 109.600,160.400 108.981,160.400 108.224 C 160.400 107.467,160.561 106.748,160.758 106.626 C 161.125 106.399,161.469 104.604,161.855 100.900 C 161.975 99.745,162.237 98.800,162.437 98.800 C 162.949 98.800,162.913 76.917,162.400 76.600 C 162.180 76.464,162.000 75.283,162.000 73.976 C 162.000 72.659,161.822 71.600,161.600 71.600 C 161.380 71.600,161.200 70.895,161.200 70.033 C 161.200 69.172,161.028 68.407,160.818 68.333 C 160.607 68.260,160.390 67.525,160.336 66.700 C 160.281 65.875,160.093 65.200,159.918 65.200 C 159.743 65.200,159.600 64.649,159.600 63.976 C 159.600 63.263,159.433 62.856,159.200 63.000 C 158.967 63.144,158.800 62.745,158.800 62.047 C 158.800 61.387,158.634 60.745,158.431 60.619 C 158.228 60.494,157.935 59.814,157.780 59.109 C 157.486 57.768,157.348 57.431,156.235 55.300 C 155.861 54.585,155.700 53.997,155.877 53.994 C 156.055 53.991,155.989 53.854,155.732 53.690 C 155.475 53.526,155.205 53.128,155.132 52.806 C 155.059 52.483,154.773 51.975,154.496 51.677 C 154.219 51.379,154.085 50.985,154.199 50.802 C 154.312 50.618,154.269 50.408,154.102 50.334 C 153.540 50.085,152.000 47.637,152.000 46.993 C 152.000 46.641,151.846 46.448,151.657 46.565 C 151.468 46.681,150.900 45.972,150.394 44.988 C 149.888 44.005,149.323 43.200,149.137 43.200 C 148.952 43.200,148.800 43.002,148.800 42.760 C 148.800 42.519,148.260 41.817,147.600 41.200 C 146.940 40.583,146.400 39.915,146.400 39.715 C 146.400 39.515,144.982 37.878,143.249 36.076 C 141.516 34.274,140.175 32.800,140.267 32.800 C 140.360 32.800,139.986 32.350,139.436 31.800 C 138.886 31.250,138.361 30.800,138.268 30.800 C 138.102 30.800,136.338 29.340,134.644 27.800 C 134.160 27.360,133.615 26.983,133.433 26.961 C 133.251 26.940,132.539 26.488,131.851 25.957 C 131.163 25.425,130.105 24.737,129.500 24.428 C 128.895 24.118,128.400 23.715,128.400 23.532 C 128.400 23.350,128.080 23.200,127.688 23.200 C 127.297 23.200,126.717 22.840,126.400 22.400 C 126.083 21.960,125.503 21.600,125.112 21.600 C 124.720 21.600,124.400 21.420,124.400 21.200 C 124.400 20.980,124.130 20.800,123.800 20.800 C 123.470 20.800,123.200 20.620,123.200 20.400 C 123.200 20.180,122.840 20.000,122.400 20.000 C 121.960 20.000,121.600 19.820,121.600 19.600 C 121.600 19.380,121.240 19.200,120.800 19.200 C 120.360 19.200,120.000 19.053,120.000 18.872 C 120.000 18.692,119.100 18.300,118.000 18.000 C 116.900 17.700,116.000 17.308,116.000 17.128 C 116.000 16.947,115.640 16.800,115.200 16.800 C 114.760 16.800,114.400 16.659,114.400 16.487 C 114.400 16.315,113.905 16.134,113.300 16.084 C 112.695 16.034,112.140 15.815,112.067 15.597 C 111.993 15.378,111.408 15.200,110.767 15.200 C 110.125 15.200,109.600 15.058,109.600 14.885 C 109.600 14.712,109.018 14.526,108.307 14.472 C 107.595 14.417,106.839 14.199,106.627 13.987 C 106.414 13.774,105.657 13.600,104.944 13.600 C 104.231 13.600,103.555 13.451,103.443 13.269 C 103.330 13.087,102.195 12.897,100.919 12.847 C 99.644 12.796,98.542 12.591,98.471 12.391 C 98.293 11.888,76.400 11.910,76.400 12.413 M93.917 34.485 L 94.033 37.570 95.517 37.806 C 114.813 40.870,130.898 55.379,136.085 74.400 C 137.026 77.851,137.299 80.241,137.477 86.600 C 137.660 93.144,137.564 94.223,136.318 99.600 C 132.236 117.218,116.664 132.656,99.200 136.398 C 97.990 136.657,96.325 137.041,95.500 137.251 L 94.000 137.632 94.000 140.367 C 94.000 144.069,94.046 144.045,87.145 143.911 L 81.400 143.800 81.284 140.733 C 81.157 137.378,80.609 136.800,77.559 136.800 C 76.942 136.800,76.024 136.640,75.519 136.444 C 75.013 136.248,73.250 135.667,71.600 135.153 C 61.053 131.868,49.386 122.561,44.389 113.447 C 43.128 111.148,41.152 107.156,40.801 106.200 C 40.639 105.760,40.318 104.950,40.087 104.400 C 39.856 103.850,39.550 102.950,39.406 102.400 C 39.263 101.850,38.977 100.770,38.769 100.000 C 31.185 71.806,49.329 44.000,79.400 37.733 L 81.000 37.400 81.117 34.290 L 81.234 31.180 87.517 31.290 L 93.800 31.400 93.917 34.485 M12.000 181.400 L 12.000 188.000 87.400 188.000 L 162.800 188.000 162.800 181.400 L 162.800 174.800 87.400 174.800 L 12.000 174.800 12.000 181.400 M12.000 218.600 L 12.000 225.200 87.400 225.200 L 162.800 225.200 162.800 218.600 L 162.800 212.000 87.400 212.000 L 12.000 212.000 12.000 218.600 " stroke="none" fill="#f4bc54" fill-rule="evenodd"></path></g></svg>